<?xml version="1.0" standalone="no"?>
<!DOCTYPE svg PUBLIC "-//W3C//DTD SVG 20010904//EN"
 "http://www.w3.org/TR/2001/REC-SVG-20010904/DTD/svg10.dtd">
<svg version="1.0" xmlns="http://www.w3.org/2000/svg"
 width="3472.000000pt" height="3472.000000pt" viewBox="0 0 3472.000000 3472.000000"
 preserveAspectRatio="xMidYMid meet">

<g transform="translate(0.000000,3472.000000) scale(0.100000,-0.100000)"
fill="#000000" stroke="none">
<path d="M23575 28259 c-88 -16 -94 -19 -110 -48 -19 -39 -21 -128 -2 -171 29
-68 54 -90 100 -90 76 1 141 57 180 158 25 62 22 108 -8 137 -26 27 -66 31
-160 14z"/>
<path d="M16503 28204 c-18 -9 -33 -24 -33 -33 0 -12 2 -13 9 -3 12 19 21 -8
21 -61 0 -51 30 -151 53 -178 13 -15 30 -19 75 -19 53 0 61 3 96 37 30 30 39
34 46 22 8 -12 97 -15 566 -19 433 -4 558 -8 562 -18 3 -9 36 -12 119 -12 118
0 143 8 143 44 0 21 63 22 80 1 7 -8 16 -15 21 -15 5 0 43 -20 85 -45 41 -25
78 -45 82 -45 23 0 181 -67 200 -85 33 -31 41 -96 14 -123 -17 -17 -25 -18
-63 -10 -24 5 -123 13 -219 18 -101 4 -209 15 -255 25 -70 16 -144 18 -605 20
-415 2 -551 6 -650 19 -136 17 -290 21 -305 7 -6 -5 -27 -14 -47 -21 -73 -23
-92 -98 -37 -144 43 -37 80 -34 124 9 l35 35 104 -5 c72 -4 119 -11 151 -25
131 -56 319 -74 470 -45 105 20 316 22 470 4 55 -6 123 -13 150 -14 54 -4 176
-14 213 -19 13 -1 27 -8 31 -15 12 -19 69 -23 166 -13 54 6 183 6 325 2 149
-5 261 -5 306 2 58 8 77 7 108 -6 21 -9 47 -16 58 -16 37 0 102 43 167 111 36
38 97 90 136 117 62 42 70 51 78 90 l8 42 80 0 c44 0 89 -5 100 -10 13 -8 19
-7 19 0 0 6 5 8 10 5 6 -3 10 -2 10 3 0 19 -208 92 -273 96 -34 2 -116 18
-182 35 -66 17 -151 37 -190 45 -89 18 -181 43 -208 57 -11 7 -98 16 -191 20
-169 9 -259 18 -436 41 -66 9 -104 9 -143 1 -68 -14 -694 1 -902 22 -82 8
-215 15 -294 15 -136 0 -147 1 -199 27 -30 15 -76 28 -101 29 -25 2 -64 5 -86
9 -28 4 -50 0 -72 -11z m297 -194 c0 -5 -4 -10 -10 -10 -5 0 -10 5 -10 10 0 6
5 10 10 10 6 0 10 -4 10 -10z"/>
<path d="M24598 28155 c-18 -19 -7 -53 20 -63 111 -41 156 -51 263 -57 138 -8
194 -1 233 30 29 23 31 59 3 64 -74 13 -511 35 -519 26z"/>
<path d="M25243 28154 c-22 -10 -15 -77 11 -112 26 -36 149 -101 239 -127 76
-22 117 -50 117 -79 0 -43 -20 -49 -107 -32 -113 22 -248 36 -344 36 -46 0
-138 5 -204 11 -66 5 -336 14 -600 20 -264 5 -510 12 -547 15 -58 5 -79 1
-155 -25 -48 -17 -113 -35 -143 -42 -98 -20 -130 -55 -106 -114 18 -42 58 -62
93 -46 12 6 33 32 47 59 14 27 32 52 41 56 9 3 66 6 126 6 89 0 133 -6 229
-30 126 -32 257 -40 343 -21 84 19 350 34 392 22 50 -13 326 -39 670 -62 99
-6 203 -19 250 -31 50 -12 130 -22 216 -25 l135 -6 30 36 c47 58 78 58 145 3
42 -34 65 -46 89 -46 33 0 56 18 223 176 15 15 27 35 27 45 0 28 36 59 68 59
16 0 37 6 47 14 16 11 17 16 6 29 -16 20 -108 32 -144 18 -36 -14 -180 5 -227
30 -19 11 -44 19 -55 19 -26 0 -90 24 -229 85 l-110 48 -160 3 c-89 2 -215 5
-281 8 -66 3 -126 3 -132 0z"/>
<path d="M9975 28130 c-181 -6 -234 -12 -300 -30 -44 -12 -120 -28 -170 -35
-141 -20 -295 -69 -295 -94 0 -5 -15 -18 -32 -30 -18 -11 -42 -27 -53 -35 -11
-8 -39 -18 -62 -22 l-43 -7 0 46 c0 25 -5 47 -10 49 -21 7 -227 -10 -247 -20
-28 -15 -35 -50 -15 -70 9 -10 24 -29 33 -43 16 -24 74 -49 116 -49 11 0 37
-12 58 -26 32 -21 46 -25 80 -20 37 6 45 3 68 -21 85 -89 156 -156 181 -170
22 -12 43 -14 85 -9 31 4 124 11 206 16 83 5 269 18 415 29 325 25 453 27 528
5 46 -14 87 -16 236 -11 100 3 199 10 221 16 22 6 103 18 179 27 117 13 161
14 280 4 130 -10 146 -14 210 -46 37 -20 81 -36 97 -36 67 -2 96 82 42 120
-72 50 -168 85 -281 100 -120 16 -140 14 -442 -33 -75 -12 -224 -16 -705 -19
-405 -3 -629 -8 -667 -15 -110 -22 -127 20 -52 125 61 85 81 98 141 90 137
-19 184 -18 247 4 149 54 316 141 316 165 0 18 -52 42 -100 47 -25 3 -144 2
-265 -2z"/>
<path d="M11301 28107 c-17 -17 -13 -69 7 -93 40 -50 171 -112 295 -140 61
-14 70 -14 91 -1 30 20 57 123 49 189 -5 45 -7 47 -42 52 -69 10 -389 4 -400
-7z"/>
<path d="M26680 27905 c-12 -14 -11 -21 5 -51 18 -35 30 -39 82 -28 20 4 33
15 40 34 14 38 1 49 -64 56 -38 5 -52 3 -63 -11z"/>
<path d="M25646 27518 c-10 -17 -17 -85 -25 -243 -7 -121 -14 -248 -17 -283
-7 -76 9 -102 62 -102 55 0 99 47 114 122 6 35 23 88 36 119 13 31 28 84 33
117 10 61 19 86 52 132 27 40 31 105 7 135 -19 24 -24 25 -133 25 -108 0 -115
-1 -129 -22z"/>
<path d="M9401 27450 c-87 -10 -105 -36 -82 -114 16 -55 61 -258 81 -366 10
-58 26 -119 35 -137 11 -23 28 -147 55 -422 42 -410 42 -414 84 -556 26 -88
43 -124 116 -240 20 -33 49 -81 64 -108 31 -54 119 -124 266 -211 124 -73 160
-89 245 -111 39 -9 82 -23 96 -31 37 -19 274 -37 427 -32 125 3 128 4 206 42
90 46 152 94 182 142 11 19 75 87 141 152 184 179 228 273 300 636 35 180 42
234 34 253 -6 12 -17 23 -25 23 -20 0 -94 -86 -123 -145 -56 -111 -84 -114
-149 -15 -79 121 -218 228 -379 292 -72 29 -91 32 -180 32 -122 0 -177 -15
-340 -93 -79 -38 -167 -91 -255 -156 -210 -152 -239 -161 -338 -95 -115 77
-181 180 -236 370 -47 161 -58 281 -54 613 4 318 16 298 -171 277z m1543
-1090 c116 -33 205 -104 250 -198 33 -69 30 -100 -11 -138 -50 -46 -202 -25
-298 41 -28 19 -62 35 -75 35 -12 0 -47 -14 -76 -30 -46 -27 -68 -32 -176 -41
-170 -15 -301 -9 -327 15 -34 31 -27 70 20 108 23 18 58 47 78 65 49 42 189
107 276 128 39 10 77 21 85 26 29 16 182 10 254 -11z"/>
<path d="M24292 27403 c-9 -17 -9 -46 2 -143 13 -112 25 -150 47 -150 14 0 11
45 -7 97 -10 26 -20 86 -23 133 -5 74 -8 82 -19 63z"/>
<path d="M16873 27403 c-10 -3 -13 -44 -13 -152 0 -135 -2 -149 -20 -166 -11
-10 -20 -25 -20 -34 0 -9 -6 -25 -14 -36 -16 -24 -28 -95 -16 -95 4 0 10 6 13
13 3 9 7 9 19 -1 19 -16 24 -10 71 84 44 88 62 182 54 287 -8 99 -24 121 -74
100z"/>
<path d="M17212 27377 c-22 -23 -22 -25 -12 -234 11 -227 20 -268 66 -279 13
-3 36 -3 50 0 25 7 26 9 19 64 -4 31 -9 140 -11 242 -5 171 -6 186 -26 207
-27 29 -59 29 -86 0z"/>
<path d="M18656 27375 c-19 -29 -38 -141 -51 -300 -5 -59 -17 -114 -35 -161
-29 -76 -27 -104 9 -123 25 -14 96 -14 121 -1 24 13 50 3 50 -20 0 -11 -13
-34 -30 -52 -16 -18 -30 -41 -30 -52 0 -23 -77 -205 -96 -227 -8 -8 -15 -28
-16 -42 -1 -15 -5 -27 -8 -27 -3 0 -11 -15 -18 -34 -7 -19 -21 -36 -32 -39
-11 -3 -22 -18 -26 -33 -4 -16 -16 -35 -26 -42 -10 -7 -18 -25 -18 -41 0 -22
-20 -50 -90 -124 -49 -52 -90 -99 -90 -103 0 -13 -59 -74 -71 -74 -15 0 -105
-81 -102 -91 2 -5 -6 -9 -16 -9 -11 0 -33 -11 -49 -25 -17 -14 -35 -25 -42
-25 -7 0 -25 -11 -42 -25 -16 -14 -36 -25 -44 -25 -8 0 -14 -4 -14 -9 0 -5
-16 -12 -36 -15 -19 -4 -45 -17 -57 -29 -12 -12 -31 -20 -43 -19 -12 2 -38 -6
-58 -17 -20 -12 -43 -21 -52 -21 -9 0 -12 -5 -8 -11 5 -9 -33 -10 -149 -6
l-157 6 0 -44 c0 -40 3 -45 26 -51 15 -4 35 -15 45 -25 11 -11 32 -19 48 -19
15 0 40 -9 54 -20 14 -11 37 -20 51 -20 14 0 26 -5 26 -11 0 -16 175 -5 245
15 33 10 67 24 75 31 8 8 20 14 25 15 27 3 55 13 55 20 0 4 15 13 33 21 17 7
35 18 40 25 4 7 25 15 47 19 22 4 40 10 40 15 0 4 15 14 33 21 17 7 38 21 45
31 7 10 17 16 22 13 5 -3 16 8 24 24 12 22 29 33 73 47 42 13 58 15 61 6 2 -7
11 -12 20 -12 15 0 17 -21 16 -228 -1 -210 -12 -327 -32 -341 -9 -7 -9 -27 0
-36 7 -8 84 67 208 204 118 128 116 124 75 221 -30 70 -32 132 -10 282 8 57
16 132 19 168 2 36 14 99 25 140 12 41 21 93 21 116 0 26 11 60 31 97 24 44
32 76 40 149 7 71 14 97 28 108 18 15 23 32 41 139 5 30 21 70 34 90 18 25 28
59 34 113 10 75 33 126 67 145 18 10 23 273 7 315 -17 42 -45 50 -202 56
l-146 5 -18 -28z m156 -505 c-2 -16 -5 -30 -7 -30 -2 0 -5 14 -7 30 -3 19 0
30 7 30 7 0 10 -11 7 -30z"/>
<path d="M10636 27328 c-3 -18 -8 -82 -11 -142 -4 -76 -11 -119 -24 -145 -25
-49 -34 -81 -23 -81 5 0 15 12 22 28 8 15 27 45 42 67 26 37 28 48 29 136 1
102 -8 169 -22 169 -4 0 -10 -15 -13 -32z"/>
<path d="M24012 26587 c2 -17 18 -28 78 -49 41 -14 93 -33 115 -42 24 -9 73
-15 123 -16 80 0 125 12 194 50 10 6 26 10 35 10 27 0 83 38 83 56 0 20 -40
12 -85 -17 -85 -54 -114 -61 -240 -58 -124 3 -145 8 -206 46 -20 13 -50 28
-68 33 -30 8 -32 7 -29 -13z"/>
<path d="M16942 26469 c-20 -32 -5 -56 59 -98 60 -39 78 -45 234 -79 93 -21
163 -18 228 7 16 6 38 11 50 11 29 1 141 47 145 60 2 5 10 10 17 10 8 0 23 14
35 31 21 29 21 31 5 50 -23 25 -56 24 -88 -1 -62 -49 -131 -63 -302 -64 -145
-1 -166 1 -222 22 -33 13 -71 35 -84 48 -28 29 -60 31 -77 3z"/>
<path d="M19160 25264 c-99 -33 -144 -76 -119 -115 6 -10 9 -11 9 -1 0 6 4 12
9 12 5 0 7 -9 4 -20 -5 -17 0 -20 26 -20 24 0 31 -4 31 -20 0 -22 15 -27 24
-7 3 6 3 2 0 -10 -3 -13 -1 -23 5 -23 6 0 11 3 11 8 0 4 10 12 22 17 15 7 25
23 30 47 4 21 19 56 33 79 28 43 29 72 5 76 -8 1 -49 -9 -90 -23z"/>
<path d="M20065 25120 c-11 -5 -14 -9 -7 -9 20 -1 14 -21 -7 -21 -21 0 -31
-19 -31 -56 0 -25 -18 -64 -35 -76 -5 -4 -6 -10 -3 -13 6 -6 -47 -121 -62
-135 -11 -10 -70 -166 -70 -183 0 -10 -7 -31 -15 -47 -12 -23 -13 -34 -3 -55
6 -14 18 -25 25 -25 26 0 43 -28 49 -77 7 -60 33 -143 44 -143 12 0 22 113 18
212 -2 74 0 89 15 100 9 7 17 21 17 31 0 10 9 39 19 65 11 26 22 73 24 105 3
32 6 59 8 60 2 1 13 7 24 13 15 9 21 23 23 64 2 39 9 59 24 72 12 10 24 18 28
18 17 0 31 56 21 83 -9 23 -16 27 -48 26 -21 0 -47 -4 -58 -9z"/>
<path d="M19011 25044 c0 -11 3 -14 6 -6 3 7 2 16 -1 19 -3 4 -6 -2 -5 -13z"/>
<path d="M25934 25024 c-11 -16 -31 -54 -43 -84 -13 -30 -36 -82 -52 -116 -16
-34 -29 -68 -29 -76 0 -25 -28 -84 -55 -116 -14 -17 -24 -36 -23 -43 2 -8 -9
-13 -27 -15 -16 -1 -61 -14 -100 -29 -109 -42 -341 -103 -436 -115 -48 -5
-129 -19 -180 -30 -52 -11 -151 -23 -220 -27 -117 -5 -130 -4 -172 16 -51 25
-107 81 -135 138 -32 63 -82 286 -82 367 0 79 -9 96 -51 96 -60 0 -93 -14
-138 -59 -49 -48 -62 -70 -81 -136 -6 -22 -15 -49 -20 -60 -4 -11 -13 -56 -19
-99 -6 -44 -16 -84 -21 -91 -11 -13 -40 -172 -40 -219 0 -17 -9 -54 -20 -82
-12 -34 -23 -100 -30 -195 -6 -79 -15 -171 -20 -204 -36 -234 -49 -390 -50
-590 -1 -99 -3 -198 -5 -220 -2 -22 -9 -254 -15 -515 -12 -492 -8 -1005 12
-1745 6 -237 8 -444 3 -460 -12 -43 -7 -67 21 -93 50 -48 57 -76 49 -201 -3
-64 -13 -172 -21 -241 -7 -69 -14 -161 -14 -206 0 -57 -6 -98 -21 -140 -18
-50 -21 -79 -19 -181 1 -67 -5 -252 -14 -410 -22 -409 -36 -844 -36 -1082 0
-113 -5 -244 -11 -292 -8 -60 -8 -97 -1 -116 21 -61 -60 -93 -232 -93 l-105 0
-17 -35 c-9 -19 -20 -35 -25 -35 -6 0 -1 -10 11 -22 66 -73 70 -83 70 -157 0
-78 26 -224 41 -229 5 -2 9 -12 9 -23 0 -10 4 -19 9 -19 5 0 13 -9 16 -20 6
-18 15 -20 110 -20 74 0 105 -4 108 -12 3 -10 44 -12 169 -10 l166 3 7 -41 c6
-34 10 -40 32 -40 15 0 23 5 20 13 -2 6 -10 11 -16 9 -16 -3 -14 13 4 28 8 7
15 20 15 29 0 17 45 71 58 71 16 0 75 -56 83 -78 5 -13 18 -26 29 -29 19 -5
20 -14 20 -124 0 -73 4 -119 10 -119 14 0 13 -77 -1 -82 -9 -3 -9 -17 0 -56 7
-28 10 -55 7 -60 -6 -10 35 -25 44 -16 8 9 6 296 -4 337 -7 31 -6 37 8 37 9 0
16 5 16 10 0 6 16 10 35 10 19 0 35 -4 35 -10 0 -5 9 -10 19 -10 11 0 23 -4
26 -10 3 -5 15 -10 26 -10 10 0 19 -4 19 -10 0 -5 7 -10 15 -10 8 0 15 -5 15
-11 0 -5 5 -7 11 -4 5 4 22 2 37 -3 15 -6 39 -13 55 -16 15 -4 27 -13 27 -20
0 -8 10 -14 23 -14 73 0 146 -29 117 -47 -5 -3 -10 -17 -10 -30 0 -12 -7 -25
-15 -29 -8 -3 -15 -10 -15 -16 0 -17 -101 -130 -115 -130 -7 0 -19 -10 -27
-23 -35 -52 -135 -147 -156 -147 -15 0 -26 -9 -32 -25 -5 -14 -16 -25 -24 -25
-8 0 -28 -13 -43 -30 -32 -33 -115 -80 -143 -80 -11 0 -30 -11 -43 -24 -18
-18 -40 -26 -83 -31 -78 -9 -94 -14 -94 -30 0 -9 -20 -15 -60 -20 -45 -5 -67
-14 -92 -35 l-33 -29 1 -93 c3 -308 11 -480 22 -487 8 -5 15 -47 19 -122 3
-63 9 -116 13 -119 4 -3 10 -93 14 -200 14 -363 20 -450 34 -459 14 -8 31
-275 32 -493 0 -79 4 -128 10 -128 6 0 10 -33 10 -80 0 -47 4 -80 10 -80 6 0
10 -18 10 -39 0 -22 5 -41 12 -43 9 -3 14 -72 20 -254 9 -297 22 -477 37 -482
7 -2 7 -9 -1 -22 -9 -13 -8 -25 2 -49 7 -17 16 -31 21 -31 5 0 9 -9 9 -20 0
-11 -7 -20 -15 -20 -8 0 -15 -9 -15 -20 0 -14 7 -20 21 -20 18 0 20 -6 20 -62
1 -183 12 -374 22 -380 8 -5 14 -60 17 -156 3 -89 10 -155 16 -163 7 -8 15
-73 18 -149 4 -74 14 -229 21 -345 8 -115 15 -260 15 -322 0 -103 11 -163 31
-163 4 0 10 -68 14 -151 6 -116 11 -154 23 -166 17 -17 30 -213 31 -493 1 -90
6 -148 16 -175 9 -26 14 -81 15 -153 0 -62 4 -121 9 -130 4 -9 16 -150 26
-312 10 -162 21 -297 24 -300 18 -14 31 -87 31 -167 0 -50 4 -93 9 -95 13 -5
19 -92 33 -493 12 -355 12 -360 35 -383 20 -20 23 -33 23 -92 0 -40 -4 -70
-10 -70 -14 0 -13 -77 2 -82 13 -5 27 -209 27 -420 1 -85 5 -138 11 -138 6 0
10 -30 10 -71 0 -86 16 -153 44 -184 52 -57 56 -68 29 -80 -64 -28 -119 -23
-223 20 -30 12 -80 30 -110 40 -30 10 -59 22 -64 26 -6 5 -16 9 -24 9 -14 0
-92 32 -127 52 -11 7 -51 29 -89 50 -91 50 -93 53 -91 91 1 17 2 60 3 95 1 39
6 61 12 57 6 -4 10 7 10 24 0 17 -4 31 -10 31 -5 0 -10 18 -10 40 0 22 5 40
10 40 6 0 10 9 10 20 0 11 5 20 10 20 6 0 10 9 10 20 0 13 -7 20 -20 20 -17 0
-20 7 -20 40 l0 40 -45 0 c-38 0 -45 -3 -45 -19 0 -11 -4 -22 -9 -25 -5 -4 -3
-28 5 -59 9 -32 14 -104 14 -190 l0 -138 -36 -31 c-20 -18 -39 -40 -43 -51 -5
-12 -31 -28 -72 -42 -107 -38 -313 -154 -330 -186 -6 -12 -31 -30 -56 -41 -24
-11 -53 -28 -64 -39 -10 -10 -19 -17 -19 -14 0 8 -59 -24 -95 -50 -16 -12 -45
-28 -62 -35 -27 -10 -31 -15 -23 -30 22 -41 -1 -56 -62 -40 -28 8 -55 8 -93 0
-50 -10 -53 -13 -59 -45 -5 -24 -12 -35 -25 -35 -25 0 -66 -40 -51 -50 9 -6 9
-9 -1 -13 -10 -4 -9 -6 4 -6 27 -1 20 -21 -8 -21 -15 0 -25 6 -25 14 0 19 -36
30 -52 17 -90 -72 -103 -99 -59 -130 40 -29 106 -51 166 -57 177 -15 432 -26
705 -30 383 -6 543 -15 590 -36 87 -38 120 -47 190 -53 127 -10 223 -25 236
-36 15 -12 102 -30 164 -33 54 -3 126 -24 141 -43 7 -7 32 -13 60 -13 26 0 50
-4 53 -9 3 -5 23 -11 43 -14 63 -9 117 -23 143 -37 31 -17 89 -30 155 -37 28
-2 74 -15 103 -29 29 -13 67 -24 85 -24 17 -1 52 -5 77 -11 25 -5 56 -11 70
-14 14 -2 48 -9 75 -15 128 -29 312 -52 330 -42 6 4 15 7 20 8 6 1 16 3 24 5
7 2 15 -5 17 -16 1 -11 8 -21 14 -23 5 -2 8 -8 4 -13 -3 -5 2 -9 10 -9 21 0
21 36 0 44 -12 5 -7 14 23 43 22 21 62 65 91 98 38 43 55 56 61 47 6 -10 10
-10 20 2 7 8 14 21 15 29 2 18 31 47 46 47 6 0 8 5 5 10 -4 6 -1 18 6 26 9 11
9 18 2 22 -7 5 -6 11 3 20 8 7 14 8 14 2 0 -5 6 -10 14 -10 9 0 13 7 11 18 -4
24 5 39 30 43 11 2 25 15 32 29 7 14 13 21 13 17 0 -4 14 7 31 24 23 23 42 33
72 36 37 3 77 22 51 24 -5 0 -67 2 -139 5 -71 2 -150 7 -175 10 -25 4 -58 7
-75 8 -38 3 -75 15 -75 25 0 15 -111 31 -208 31 -52 0 -112 5 -134 12 -30 9
-47 9 -73 -1 -28 -10 -39 -9 -57 1 -13 7 -23 20 -23 28 0 17 -34 28 -93 29
-64 2 -110 25 -126 63 -7 18 -16 76 -19 129 -4 53 -11 107 -16 121 -8 21 -6
31 10 49 22 26 25 85 5 114 -11 16 -13 172 -15 864 -1 464 -4 847 -6 852 -3 4
-10 358 -15 786 -6 444 -15 803 -21 836 -5 32 -13 266 -16 520 -3 254 -7 525
-8 602 -3 151 4 200 33 231 35 37 34 252 -1 275 -5 4 -12 41 -15 83 -2 42 -9
79 -13 82 -5 3 -9 15 -9 28 0 12 -7 31 -15 42 -8 11 -15 41 -15 71 0 32 -6 57
-15 67 -12 11 -15 41 -15 135 0 111 -1 120 -20 126 -16 5 -20 15 -20 46 0 21
-4 39 -10 39 -5 0 -10 14 -10 30 0 17 5 30 10 30 6 0 10 5 10 10 0 6 -9 10
-20 10 -17 0 -20 7 -20 40 0 22 5 40 10 40 6 0 10 9 10 20 0 11 -4 20 -10 20
-5 0 -10 6 -10 14 0 8 -7 16 -15 20 -8 3 -15 14 -15 25 0 11 -7 26 -14 34 -19
19 -38 179 -22 190 8 6 7 10 -1 14 -7 2 -13 15 -13 28 0 14 -7 25 -20 28 -18
5 -20 14 -20 80 0 67 -2 76 -20 82 -18 6 -20 15 -20 80 0 49 -4 75 -12 77 -7
3 -20 42 -29 89 -9 46 -18 73 -19 59 -4 -40 -28 67 -29 128 -1 37 -5 54 -16
58 -11 5 -15 22 -15 65 0 51 -3 59 -19 59 -16 0 -19 12 -25 92 -4 51 -11 97
-16 103 -4 5 -11 26 -14 45 -13 73 -25 113 -38 121 -9 6 -12 29 -10 78 2 62 0
70 -18 76 -18 6 -20 15 -20 81 0 67 -2 74 -20 74 -19 0 -20 7 -20 110 0 76 -4
110 -11 110 -17 0 -38 32 -39 56 0 12 -7 38 -15 57 -8 20 -15 59 -15 87 0 27
-4 50 -10 50 -5 0 -10 11 -10 25 0 14 -4 25 -10 25 -5 0 -10 9 -10 20 0 11 -4
20 -10 20 -14 0 -12 37 3 44 10 5 10 7 0 12 -7 3 -13 23 -13 45 0 21 -4 39
-10 39 -5 0 -10 9 -10 20 0 11 -4 20 -10 20 -6 0 -10 27 -10 60 0 33 -4 60
-10 60 -5 0 -10 7 -10 15 0 8 -4 15 -10 15 -5 0 -10 7 -10 15 0 8 -4 15 -10
15 -6 0 -10 40 -10 100 0 60 -4 100 -10 100 -5 0 -10 9 -10 20 0 11 -4 20 -10
20 -5 0 -10 24 -10 54 0 46 -3 56 -20 61 -17 5 -20 15 -20 61 0 30 -6 64 -12
75 -10 17 -10 23 0 26 6 3 12 16 12 29 0 13 4 24 8 24 5 0 15 11 22 25 7 14
20 25 27 25 7 0 17 8 20 18 4 9 15 23 25 30 10 7 18 18 18 23 0 14 41 48 58
49 7 0 16 8 19 18 11 29 53 62 80 62 20 0 23 3 14 14 -9 10 -5 20 18 45 16 17
34 31 40 31 6 0 11 7 11 15 0 8 9 16 20 17 11 0 26 1 33 2 6 1 17 9 22 20 6
10 14 17 18 15 5 -2 15 9 23 24 8 15 19 25 24 22 4 -3 13 9 19 25 5 17 15 30
21 30 7 0 25 14 40 30 15 17 35 30 44 30 9 0 16 5 16 10 0 6 14 10 30 10 23 0
30 5 30 19 0 11 9 23 21 26 12 4 18 12 15 21 -4 11 -2 12 14 4 10 -5 42 -10
71 -10 40 0 56 5 69 20 16 18 33 21 149 25 105 4 133 2 145 -10 8 -8 19 -15
24 -15 12 0 22 -74 22 -165 0 -39 3 -127 7 -193 5 -110 8 -122 25 -122 14 0
18 8 19 43 1 42 2 42 10 -13 5 -30 8 -93 8 -140 -3 -126 -2 -130 22 -130 19 0
21 -4 15 -31 -3 -17 -6 -40 -6 -50 0 -11 -7 -19 -15 -19 -12 0 -15 -14 -15
-70 l0 -70 30 0 c28 0 30 -2 30 -40 0 -22 -4 -40 -10 -40 -6 0 -10 -43 -10
-110 0 -103 1 -110 20 -110 13 0 20 -7 20 -20 0 -11 4 -20 9 -20 5 0 11 -39
13 -87 3 -54 9 -88 16 -91 8 -2 12 -34 12 -92 0 -97 -5 -91 70 -91 57 0 76 -7
88 -34 15 -32 15 -92 2 -131 -12 -36 -19 -104 -13 -121 3 -7 11 -13 18 -13 7
0 16 -16 19 -35 7 -36 1 -59 -14 -50 -18 11 -49 -67 -56 -145 l-4 -49 35 -7
c30 -5 40 -2 62 20 25 26 26 30 16 77 -9 45 -8 51 10 60 11 6 36 8 56 4 71
-13 96 -8 158 34 61 40 103 87 103 113 0 8 11 29 25 48 14 19 25 40 25 47 0 7
15 20 33 29 17 9 52 32 76 51 24 18 50 33 57 33 7 0 25 12 39 27 47 52 27 70
-50 43 -65 -23 -130 -31 -144 -17 -18 18 -13 125 6 158 13 22 25 29 49 29 45
0 64 9 64 30 0 35 23 119 32 114 7 -5 9 0 12 33 3 30 45 53 96 53 31 0 49 -4
48 -11 -2 -6 14 -17 35 -25 32 -11 37 -11 37 2 0 8 18 53 40 100 22 47 42 96
44 109 2 12 9 31 14 41 6 11 18 46 28 79 10 33 26 74 36 90 10 17 18 43 18 58
0 15 13 54 30 86 20 40 31 80 34 123 10 129 17 147 70 173 11 6 36 42 55 80
38 78 55 99 75 92 20 -8 26 -80 26 -331 l0 -231 29 -50 c16 -27 49 -71 73 -97
60 -65 96 -66 183 -4 73 53 232 218 284 296 84 125 157 278 191 400 10 36 25
90 34 121 33 113 36 185 9 289 -24 98 -35 114 -68 103 -57 -17 -64 -25 -115
-124 -84 -168 -158 -258 -249 -304 -66 -33 -85 -32 -169 10 -111 56 -253 204
-329 345 -17 30 -42 76 -57 102 -26 47 -32 96 -17 148 4 15 2 38 -6 57 -8 19
-13 73 -13 130 0 124 -10 140 -75 121 -16 -4 -237 -11 -490 -13 -253 -3 -527
-10 -610 -15 -82 -5 -379 -10 -659 -11 l-510 -2 -8 24 c-5 13 -16 31 -24 41
-13 13 -14 30 -9 80 19 170 -3 624 -36 738 -14 49 -22 139 -34 360 -8 162 -19
345 -25 405 -5 61 -14 218 -20 350 -8 172 -16 249 -27 273 -37 83 -87 631 -69
755 8 55 43 102 92 122 37 15 43 37 18 62 -19 19 -16 78 11 223 17 97 20 118
30 230 4 36 10 74 15 85 12 28 28 127 50 300 7 55 19 115 27 133 8 18 15 52
17 75 5 72 27 221 36 242 5 11 11 36 15 55 3 19 7 42 9 50 1 8 6 35 11 60 4
25 9 54 11 65 2 11 8 45 14 75 6 30 17 77 25 104 8 27 15 64 15 82 0 36 27
148 42 177 13 25 34 111 42 172 4 28 16 75 26 105 10 30 23 91 30 135 7 44 21
102 31 128 11 26 19 56 19 66 0 26 60 234 71 245 5 6 9 26 9 45 0 20 14 74 31
121 17 47 37 114 45 149 7 35 27 100 42 145 16 44 39 115 52 156 37 126 71
232 90 285 40 112 79 207 94 230 9 13 16 35 16 49 0 14 4 27 9 31 5 3 12 18
16 34 9 40 50 79 88 83 29 3 33 7 38 43 3 22 19 69 36 105 17 36 34 85 38 109
4 24 14 59 21 77 8 19 14 36 14 39 1 3 10 26 21 52 34 79 37 87 29 107 -6 17
-8 17 -26 -10z m-1796 -3386 c25 -28 36 -68 23 -87 -15 -22 -68 -17 -96 9 -29
27 -31 47 -9 78 20 28 55 28 82 0z m302 -5079 c0 -51 -4 -78 -10 -74 -18 11
-12 155 7 155 2 0 3 -36 3 -81z m940 -69 c0 -5 -9 -10 -21 -10 -11 0 -17 5
-14 10 3 6 13 10 21 10 8 0 14 -4 14 -10z m1374 -19 c8 -12 -29 -95 -49 -111
-8 -7 -14 -18 -13 -24 1 -6 -6 -38 -16 -71 -10 -33 -23 -75 -28 -92 -5 -18
-14 -33 -19 -33 -12 0 -12 17 1 25 5 3 0 15 -11 26 -15 15 -19 27 -13 42 4 12
8 58 10 101 3 84 8 92 57 103 15 3 27 11 27 18 0 21 44 33 54 16z m388 -258
c19 -22 40 -86 36 -110 -1 -10 1 -24 5 -30 11 -17 -1 -16 -52 2 -45 15 -43 15
-69 15 -15 0 -18 7 -17 38 2 53 30 102 59 102 12 0 30 -8 38 -17z m-282 -243
c0 -5 -4 -10 -10 -10 -5 0 -10 5 -10 10 0 6 5 10 10 10 6 0 10 -4 10 -10z
m-2012 -7505 c34 -75 -1 -157 -71 -168 -65 -10 -101 47 -78 124 15 48 44 69
97 69 34 0 43 -4 52 -25z m546 -2657 c6 -25 4 -28 -19 -28 -14 0 -25 -4 -25
-10 0 -5 -7 -10 -15 -10 -8 0 -15 9 -15 19 0 27 -47 33 -233 29 -81 -2 -147 0
-147 5 0 6 285 14 398 10 24 -1 42 3 42 10 0 17 7 5 14 -25z m1073 -40 c-3 -8
-6 -5 -6 6 -1 11 2 17 5 13 3 -3 4 -12 1 -19z"/>
<path d="M19070 24973 c0 -49 18 -113 31 -113 19 0 36 25 42 65 4 22 10 50 13
63 6 20 3 22 -40 22 l-46 0 0 -37z"/>
<path d="M11389 24968 c-11 -8 -19 -35 -22 -73 -3 -33 -15 -89 -27 -125 -31
-94 -176 -385 -212 -428 -8 -9 -31 -44 -51 -77 -41 -69 -210 -257 -310 -345
-118 -104 -247 -181 -397 -235 -67 -24 -85 -26 -161 -22 -76 5 -97 11 -168 46
-110 56 -183 113 -287 227 -234 253 -363 510 -445 887 -25 115 -46 147 -94
147 -28 0 -38 -7 -64 -46 -24 -36 -29 -53 -23 -73 11 -39 4 -302 -23 -916 -2
-44 -7 -233 -11 -420 -8 -427 -8 -394 -5 -435 1 -19 6 -181 12 -360 5 -179 11
-365 14 -415 3 -49 9 -243 15 -430 5 -187 12 -434 16 -550 3 -115 10 -226 14
-245 5 -19 11 -105 15 -190 3 -85 11 -193 16 -240 12 -114 11 -273 -2 -343 -9
-54 -8 -61 20 -120 29 -60 30 -69 41 -277 14 -301 13 -376 -6 -427 -14 -36
-15 -57 -6 -140 20 -194 8 -1228 -17 -1488 -6 -55 -13 -145 -16 -200 -14 -242
-22 -268 -97 -316 l-49 -32 -232 7 c-128 4 -252 11 -276 16 -73 13 -650 13
-667 -1 -11 -9 -14 -46 -14 -173 0 -88 -5 -226 -11 -306 -5 -80 -13 -196 -18
-257 -6 -87 -12 -117 -26 -133 -25 -28 -81 -26 -125 4 -19 13 -82 45 -140 70
-58 26 -134 60 -170 76 -111 50 -135 54 -300 52 -116 -1 -178 -7 -246 -22
-129 -30 -135 -38 -146 -188 -14 -190 5 -505 43 -702 14 -75 75 -252 112 -325
73 -147 183 -244 334 -296 72 -25 114 -32 228 -39 77 -5 167 -7 200 -4 77 8
131 -12 141 -52 7 -26 1 -119 -32 -479 -7 -88 -18 -245 -24 -350 -11 -212 -18
-283 -31 -336 -5 -20 -11 -86 -14 -148 -12 -303 -40 -702 -65 -936 -5 -49 -14
-209 -20 -355 -5 -146 -17 -312 -24 -370 -18 -130 -33 -354 -47 -705 -5 -148
-17 -351 -24 -450 -18 -218 -19 -281 -3 -340 10 -38 9 -52 -4 -92 -14 -38 -19
-119 -28 -383 -6 -184 -17 -418 -25 -520 -17 -210 -31 -492 -40 -755 -3 -99
-10 -221 -16 -272 -9 -81 -8 -97 7 -129 9 -20 29 -41 43 -46 62 -25 72 -31 59
-40 -10 -5 -8 -8 5 -8 9 0 17 -6 18 -12 0 -7 7 2 15 20 13 29 18 32 58 32 26
0 46 -5 49 -12 2 -7 3 -98 1 -202 -3 -182 -2 -190 20 -225 33 -51 53 -65 120
-86 139 -42 258 5 324 130 16 31 22 64 26 150 6 143 23 209 54 213 12 2 36 -4
54 -12 20 -10 58 -16 108 -16 75 0 78 -1 104 -32 32 -39 32 -51 4 -78 -22 -20
-23 -30 -26 -186 -3 -128 -7 -164 -17 -164 -13 0 -16 -22 -31 -237 -3 -46 -10
-83 -15 -83 -5 0 -9 -5 -9 -11 0 -19 -28 -39 -54 -39 -14 0 -26 -4 -26 -10 0
-5 -11 -10 -24 -10 -37 0 -56 -10 -56 -30 0 -10 -7 -26 -16 -35 -39 -38 -25
-207 18 -220 10 -4 18 -11 18 -16 0 -19 33 -8 60 21 l28 30 12 -30 c12 -28 8
-115 -5 -128 -3 -3 -14 5 -25 18 -15 18 -28 22 -60 20 -44 -3 -238 -2 -340 2
-36 1 -71 8 -78 15 -7 7 -26 13 -41 13 -15 0 -31 3 -34 7 -4 3 -19 8 -34 9
-35 4 -123 44 -123 56 0 5 -4 7 -9 4 -16 -10 -20 63 -14 265 5 166 4 203 -8
211 -11 7 -11 11 -1 15 19 8 14 23 -8 23 -18 0 -20 7 -20 69 0 43 4 71 11 73
9 3 9 15 2 43 l-11 40 -1 -42 c-1 -30 -5 -43 -15 -43 -10 0 -15 -20 -19 -77
-3 -43 -12 -141 -21 -218 -20 -188 -22 -445 -2 -445 8 0 18 -9 21 -20 4 -12
14 -20 23 -19 31 3 40 -1 73 -32 24 -23 34 -27 40 -17 6 9 9 9 9 1 0 -6 15
-14 33 -18 84 -16 173 -40 180 -50 4 -6 11 -5 17 5 7 10 13 11 18 5 4 -6 23
-12 42 -13 19 -1 60 -7 90 -12 30 -5 110 -11 177 -12 109 -3 123 -5 123 -20 0
-10 -4 -18 -10 -18 -6 0 -10 -73 -10 -200 0 -127 -4 -200 -10 -200 -11 0 -14
-98 -4 -124 7 -19 60 -22 68 -3 5 9 7 9 12 0 3 -7 14 -13 25 -13 10 0 19 -5
19 -11 0 -6 6 -9 14 -6 8 3 20 -1 26 -9 7 -8 23 -14 35 -14 13 0 26 -6 28 -12
4 -10 8 -9 16 2 8 11 13 12 19 4 4 -6 45 -17 92 -23 47 -6 87 -16 89 -22 1 -5
14 -21 27 -34 31 -31 30 -41 -4 -48 -20 -4 -30 -14 -37 -39 -6 -18 -13 -32
-18 -30 -4 1 -19 -9 -33 -23 -14 -14 -28 -25 -33 -25 -4 0 -13 -11 -19 -25 -6
-14 -18 -25 -25 -25 -28 0 -147 -110 -147 -136 0 -8 -6 -14 -14 -14 -8 0 -24
-11 -37 -25 -13 -13 -29 -25 -35 -25 -6 0 -17 -12 -23 -28 -6 -15 -24 -36 -40
-46 -15 -11 -36 -32 -47 -48 -10 -15 -28 -31 -39 -34 -11 -4 -37 -24 -58 -45
-21 -22 -42 -39 -46 -39 -4 0 -18 -9 -31 -20 -13 -11 -29 -20 -37 -20 -7 0
-13 -7 -13 -15 0 -8 -9 -20 -20 -27 -50 -32 2 -64 87 -53 32 4 65 11 74 16 14
7 47 14 189 39 25 4 59 13 75 19 17 6 68 22 115 37 47 14 89 30 94 35 6 5 20
9 33 9 20 0 63 24 121 68 51 38 84 79 112 136 27 57 29 73 37 241 6 108 6 185
0 192 -24 33 -26 92 -6 245 10 87 24 181 29 209 6 29 10 113 10 188 0 75 5
174 10 221 6 47 13 110 16 140 3 30 9 73 14 95 5 22 14 117 20 210 6 94 17
232 25 308 18 166 19 249 3 333 -11 62 -11 65 14 92 24 26 26 40 52 307 15
154 33 336 41 405 8 69 21 199 30 290 8 91 17 176 19 190 3 14 12 104 21 200
9 96 25 249 35 340 11 91 26 254 35 363 8 109 20 217 25 241 5 23 16 114 25
202 8 87 17 184 20 214 8 72 25 182 30 190 2 4 11 85 20 181 9 96 27 235 40
309 13 74 29 194 35 265 6 72 20 175 30 230 11 55 24 160 30 232 6 73 21 197
35 275 13 79 29 200 35 271 5 70 21 200 34 290 14 89 28 198 31 242 4 44 19
168 35 275 16 107 31 231 35 275 4 44 13 121 20 170 8 50 19 131 25 180 5 50
15 131 20 180 6 50 19 146 30 215 10 69 26 195 35 280 18 167 25 192 68 224
25 19 45 21 182 24 l153 3 40 -35 c31 -29 44 -51 62 -109 12 -39 26 -83 32
-97 6 -14 23 -63 39 -110 15 -47 49 -143 74 -215 25 -71 57 -164 70 -205 42
-133 115 -351 157 -470 11 -30 28 -82 39 -115 10 -33 70 -213 133 -400 62
-187 142 -428 176 -535 34 -107 75 -233 91 -280 15 -47 35 -110 43 -140 8 -30
23 -77 34 -105 12 -27 27 -70 36 -95 8 -25 35 -103 60 -175 26 -71 57 -164 71
-205 48 -152 67 -206 87 -255 11 -27 28 -77 38 -110 66 -212 152 -442 171
-457 26 -22 92 -24 108 -4 17 21 97 46 145 46 23 1 66 10 96 21 71 26 139 44
220 59 36 6 73 19 82 27 12 11 49 19 107 23 68 6 95 13 111 27 11 11 49 28 83
37 34 10 85 28 112 42 28 13 81 31 120 39 38 9 79 22 90 29 11 7 44 19 74 26
30 7 82 25 115 40 34 15 77 31 96 35 19 4 53 16 74 26 43 21 106 25 106 8 0
-18 -20 -49 -32 -49 -6 0 -37 -14 -70 -30 -33 -17 -83 -37 -112 -45 -28 -7
-73 -22 -101 -33 -82 -32 -176 -62 -250 -81 -38 -10 -90 -28 -115 -41 -34 -17
-65 -24 -124 -26 -47 -2 -85 -9 -95 -17 -25 -21 -92 -45 -143 -52 -28 -4 -60
-16 -75 -29 -34 -28 -48 -33 -137 -45 -41 -6 -81 -18 -97 -30 -32 -24 -96 -40
-155 -41 -27 0 -63 -11 -99 -30 -31 -17 -63 -30 -70 -30 -32 0 -39 -28 -27
-108 14 -89 28 -334 37 -612 7 -256 21 -521 40 -755 8 -104 19 -327 25 -495 6
-168 17 -411 25 -540 9 -129 18 -320 21 -425 3 -104 10 -202 16 -217 5 -14 22
-31 37 -38 35 -14 506 -8 606 8 39 6 131 16 205 21 85 6 147 16 165 25 38 20
79 20 95 2 6 -8 15 -54 19 -101 10 -103 25 -128 101 -168 65 -34 153 -37 236
-7 109 38 134 97 134 316 0 212 -2 207 95 219 27 3 54 10 60 15 5 4 27 11 48
15 21 4 51 19 65 32 l27 25 -2 367 c-1 201 -9 551 -17 776 -19 517 -24 693
-36 1190 -24 1008 -48 1441 -104 1865 -14 102 -28 232 -31 290 -4 58 -18 184
-31 280 -14 96 -29 236 -35 310 -5 74 -12 151 -15 170 -27 180 -42 224 -76
234 -37 10 -100 6 -140 -8 -21 -8 -42 -10 -50 -5 -7 5 -35 9 -61 9 -69 0 -117
22 -117 54 0 34 22 44 116 51 43 4 101 13 128 21 27 8 67 14 88 14 29 0 41 6
54 25 17 26 17 30 -27 346 -10 75 -23 210 -29 300 -6 90 -18 220 -26 289 -8
69 -22 190 -30 270 -7 80 -19 181 -24 225 -6 44 -20 148 -30 230 -25 198 -29
216 -53 242 -16 18 -18 29 -12 70 12 79 6 198 -15 292 -11 49 -22 123 -26 163
-10 116 -20 148 -49 148 -14 0 -38 -12 -55 -27 -24 -22 -33 -42 -44 -98 -18
-96 -73 -251 -108 -302 -66 -98 -145 -144 -219 -128 -73 16 -173 79 -262 167
-84 83 -152 128 -193 128 -10 0 -31 6 -46 14 -41 22 -51 3 -42 -83 5 -53 10
-71 21 -71 8 0 17 9 20 19 3 11 12 23 21 26 27 12 82 14 82 4 0 -5 6 -9 13 -9
7 0 19 -9 27 -20 8 -11 20 -20 27 -20 7 0 13 -4 13 -10 0 -5 7 -10 15 -10 9 0
15 -10 15 -26 0 -26 20 -54 39 -54 19 0 33 -82 27 -160 -15 -194 -18 -300 -8
-300 5 0 15 -13 22 -30 7 -16 23 -36 36 -45 13 -8 24 -25 24 -36 0 -20 -46
-68 -65 -69 -6 0 -21 -14 -35 -32 -14 -17 -46 -55 -72 -82 l-47 -51 -148 1
c-100 0 -158 5 -178 14 -16 7 -34 14 -40 15 -5 2 -38 12 -72 24 -34 12 -74 21
-87 21 -28 0 -59 41 -37 48 6 2 11 12 11 22 0 20 -56 36 -74 21 -7 -6 -30 -4
-61 4 -79 21 -103 32 -120 59 -19 29 -18 53 14 216 28 141 27 155 -15 246 -30
64 -38 94 -42 160 -5 93 8 128 60 166 32 23 49 32 111 57 36 14 35 46 -3 97
-35 47 -37 74 -8 125 42 75 122 124 230 139 188 27 234 39 250 63 9 15 -2 37
-19 37 -8 0 -12 4 -9 9 10 16 -21 20 -43 5 -18 -13 -21 -13 -21 -1 0 11 -10
12 -47 6 -27 -4 -80 -8 -120 -8 -39 -1 -84 -6 -100 -12 -15 -7 -71 -13 -123
-14 -148 -3 -191 24 -241 147 -25 61 -30 89 -39 243 -6 96 -15 187 -20 201
-12 31 -39 382 -41 535 -1 58 -7 163 -15 235 -30 290 -37 391 -46 659 -17 518
-20 875 -7 945 6 36 10 130 9 209 -2 159 16 530 30 631 13 84 28 433 36 825 6
260 10 317 24 355 19 49 26 141 36 490 3 118 10 238 16 265 37 180 43 235 63
580 8 138 19 277 25 310 15 92 29 220 35 325 7 125 23 267 40 360 8 41 21 170
30 285 9 116 25 283 37 372 11 88 18 173 14 187 -9 37 -51 54 -152 61 -67 5
-93 4 -105 -7z m-1829 -1447 c0 -14 -41 -41 -62 -41 -25 0 -23 14 5 33 25 18
57 22 57 8z m-111 -68 c-6 -10 -29 -29 -51 -43 -23 -14 -56 -37 -76 -52 -39
-31 -57 -35 -65 -13 -4 9 10 25 39 45 25 16 47 30 49 30 2 0 21 11 41 25 45
30 80 34 63 8z m-204 -133 c-3 -5 -12 -10 -18 -10 -7 0 -6 4 3 10 19 12 23 12
15 0z m1923 -1792 c13 -13 16 -47 6 -72 -4 -9 -18 -16 -34 -16 -29 0 -40 15
-40 54 0 26 17 46 40 46 9 0 21 -5 28 -12z m-280 -176 c6 -41 -25 -69 -155
-137 -70 -37 -135 -73 -143 -80 -51 -43 -136 -59 -160 -30 -25 30 3 60 101
110 52 26 132 74 179 106 75 51 90 58 130 56 39 -2 45 -5 48 -25z m-977 -432
c28 -15 26 -74 -3 -94 -27 -19 -79 -21 -96 -4 -21 21 -14 65 14 87 29 23 55
26 85 11z m787 -2016 c98 -7 130 -28 159 -102 16 -42 18 -83 18 -402 0 -349 0
-355 -22 -386 -43 -60 -87 -62 -853 -40 -437 12 -469 16 -471 54 -6 90 5 755
13 783 17 60 49 91 99 98 55 8 946 3 1057 -5z m-2660 -2610 c42 -19 100 -44
129 -55 63 -24 117 -82 134 -141 11 -42 11 -61 -7 -498 -8 -176 -17 -205 -84
-263 -45 -39 -233 -122 -297 -133 -38 -6 -43 -4 -52 17 -5 13 -13 45 -16 71
-9 71 -45 93 -240 154 -116 35 -122 39 -179 97 l-59 59 6 137 c4 75 13 179 22
231 8 52 15 111 15 130 0 44 24 80 53 80 13 0 57 -21 100 -46 93 -55 163 -67
244 -40 74 25 96 53 100 129 8 125 11 127 131 71z m-114 -1350 c21 -21 12 -34
-24 -34 -32 0 -45 13 -36 35 7 20 41 19 60 -1z m-22 -801 c41 -47 25 -146 -26
-159 -66 -16 -96 22 -76 96 18 69 70 100 102 63z m5081 -267 c23 -18 22 -28
-7 -55 -19 -18 -44 -25 -103 -33 -43 -5 -97 -13 -120 -18 -23 -6 -85 -15 -137
-21 -105 -12 -148 -2 -154 37 -6 40 55 62 228 84 180 22 268 24 293 6z m-5186
-42 c7 -10 13 -37 13 -61 0 -38 -4 -46 -31 -62 -58 -35 -89 -5 -89 85 0 41 4
64 13 67 21 7 81 -11 94 -29z m5493 -114 c0 -11 -7 -20 -15 -20 -8 0 -15 9
-15 20 0 11 7 20 15 20 8 0 15 -9 15 -20z m-260 -14 c15 -19 9 -56 -11 -69 -9
-5 -28 -7 -42 -3 -33 8 -36 37 -7 66 24 24 43 25 60 6z m-5244 -1324 c42 -35
55 -71 61 -163 3 -50 9 -85 13 -79 10 16 38 -56 45 -116 5 -40 3 -53 -10 -64
-25 -21 -36 -1 -46 86 -8 63 -15 84 -38 109 -23 27 -29 44 -34 105 -3 39 -13
83 -22 96 -28 44 -10 60 31 26z m171 -563 c1 -15 4 -33 5 -40 2 -6 -2 -13 -8
-16 -17 -6 -51 96 -38 110 11 11 37 -24 41 -54z m638 -584 c31 -30 31 -40 3
-59 -29 -20 -47 -20 -70 1 -24 21 -23 38 4 63 28 26 34 25 63 -5z m-577 -377
c31 -31 5 -96 -47 -117 -55 -23 -95 22 -70 81 18 43 88 65 117 36z"/>
<path d="M16788 24960 c-32 -19 -76 -112 -83 -179 -4 -36 -21 -96 -38 -135
-28 -64 -47 -152 -47 -214 0 -13 -5 -33 -11 -44 -6 -11 -13 -37 -15 -57 -6
-72 -12 -107 -28 -176 -20 -87 -20 -95 0 -95 11 0 14 -6 9 -20 -3 -11 -2 -20
4 -20 5 0 12 10 14 23 3 15 5 12 7 -13 2 -33 3 -33 10 -10 4 14 8 42 9 63 1
26 6 37 16 37 10 0 15 10 15 33 -1 56 12 109 31 128 16 16 19 34 19 112 0 97
9 145 41 214 10 23 20 63 21 88 2 26 8 45 15 45 13 0 15 6 34 90 6 30 15 70
20 89 12 49 -3 64 -43 41z"/>
<path d="M11742 24874 c-9 -9 -13 -38 -12 -82 1 -37 -1 -150 -5 -252 -13 -356
-5 -701 16 -669 6 10 9 11 9 2 0 -7 7 -13 15 -13 11 0 15 12 15 48 0 26 2 133
3 237 2 225 -13 745 -22 745 -3 -1 -12 -7 -19 -16z"/>
<path d="M19010 24766 c0 -21 6 -36 15 -40 12 -4 15 3 15 34 0 29 -4 40 -15
40 -10 0 -15 -10 -15 -34z"/>
<path d="M8986 24728 c-12 -89 -18 -348 -7 -348 6 0 8 -7 5 -15 -3 -8 1 -21 8
-29 13 -12 17 3 32 122 19 162 20 191 3 256 -17 63 -33 69 -41 14z"/>
<path d="M8234 24736 c-3 -14 -3 -38 1 -53 l7 -28 13 25 c21 41 22 74 3 78
-12 2 -19 -5 -24 -22z"/>
<path d="M23283 24673 c-36 -34 -40 -43 -42 -92 -1 -32 -8 -62 -16 -71 -8 -9
-15 -22 -15 -29 0 -7 -4 -10 -9 -6 -6 3 -12 -9 -15 -27 -9 -58 -5 -68 26 -68
30 0 33 11 30 108 0 17 3 32 9 32 16 0 49 34 49 52 0 9 9 41 20 69 28 69 14
81 -37 32z"/>
<path d="M12714 24689 c-10 -17 11 -33 32 -21 16 9 16 10 -4 21 -15 8 -23 8
-28 0z"/>
<path d="M15986 24671 c-9 -10 -23 -40 -32 -67 -9 -27 -20 -58 -25 -69 -25
-56 -99 -301 -113 -375 -9 -47 -24 -104 -32 -127 -8 -23 -23 -88 -34 -145 -17
-94 -36 -174 -61 -254 -5 -17 -9 -42 -9 -56 0 -14 -5 -38 -10 -54 -10 -28 -40
-185 -81 -419 -10 -60 -23 -132 -28 -160 -6 -27 -19 -120 -31 -205 -12 -85
-28 -200 -37 -255 -26 -170 -33 -225 -48 -380 -8 -82 -19 -171 -25 -197 -5
-27 -14 -69 -20 -95 -5 -27 -12 -160 -16 -298 -6 -221 -9 -252 -25 -270 -12
-14 -19 -42 -23 -95 -3 -41 -10 -129 -15 -195 -5 -66 -10 -145 -10 -176 l-1
-57 40 10 40 10 0 59 c0 33 4 59 9 59 16 0 20 39 36 335 8 160 18 308 22 330
4 22 8 56 9 75 3 59 13 126 23 151 5 14 12 65 15 114 11 150 26 267 37 287 9
16 30 212 45 423 3 39 9 79 14 90 9 21 10 27 35 210 16 118 28 187 44 250 11
46 36 216 33 228 -1 4 7 45 17 90 11 45 23 102 27 127 4 25 10 50 14 55 4 6
17 60 29 120 32 163 59 292 77 365 8 36 18 76 21 90 3 14 14 56 25 94 11 38
29 112 39 165 29 139 31 144 45 166 28 40 10 80 -20 46z"/>
<path d="M27312 24640 c-34 -12 -78 -41 -123 -82 -71 -62 -199 -209 -199 -226
0 -5 -7 -15 -16 -23 -8 -7 -26 -33 -40 -58 -13 -25 -28 -53 -33 -61 -33 -56
-111 -229 -111 -245 0 -11 -9 -45 -21 -75 -12 -30 -25 -75 -29 -100 -5 -25
-22 -101 -39 -170 -27 -114 -31 -145 -36 -360 -8 -281 2 -386 61 -633 9 -37
14 -70 11 -74 -4 -3 0 -18 8 -34 9 -15 15 -55 15 -89 0 -34 7 -77 16 -98 9
-20 20 -73 24 -117 4 -44 20 -115 34 -158 14 -42 26 -94 26 -113 0 -20 11 -57
24 -83 33 -62 56 -120 56 -141 0 -18 192 -403 214 -430 7 -8 20 -31 29 -52 10
-20 33 -55 52 -79 20 -23 41 -51 47 -63 6 -12 30 -41 54 -66 24 -25 44 -49 45
-55 2 -22 20 -45 35 -45 8 0 19 -11 26 -24 11 -24 70 -56 115 -61 31 -4 145
-125 164 -174 4 -9 36 -64 71 -122 80 -132 115 -214 99 -233 -14 -16 -56 -9
-116 21 -31 15 -47 18 -70 11 -16 -6 -41 -13 -55 -17 -14 -4 -36 -4 -50 -1
-14 4 -33 3 -43 -2 -10 -5 -26 -6 -37 -3 -11 3 -31 -1 -45 -11 -16 -10 -29
-14 -33 -8 -17 25 -152 43 -152 21 0 -9 -2 -9 -8 0 -5 8 -13 8 -32 -2 -18 -10
-21 -15 -10 -18 8 -2 29 -8 45 -14 17 -5 40 -7 50 -3 21 8 66 -5 75 -20 3 -5
124 -12 268 -14 l262 -5 47 -36 c70 -54 105 -65 198 -65 78 0 88 2 162 41 43
23 98 55 122 72 25 17 63 40 85 52 23 12 96 57 164 101 67 43 165 106 218 139
53 33 150 98 216 145 66 47 151 107 189 134 38 26 81 63 95 81 14 19 50 52 79
75 60 47 115 121 115 156 0 25 -54 179 -69 198 -10 12 -145 300 -196 416 -18
41 -58 129 -89 195 -71 148 -93 195 -146 310 -40 86 -52 111 -85 173 -8 15
-70 142 -139 283 -149 305 -211 415 -325 574 -83 116 -286 383 -361 475 -20
25 -99 124 -175 220 -187 236 -440 533 -507 596 -57 54 -125 95 -155 93 -10 0
-42 -9 -71 -19z m1720 -2687 c23 -21 23 -44 -2 -97 -24 -54 -77 -86 -97 -59
-29 38 -2 122 50 158 27 19 26 19 49 -2z m-232 -508 c17 -20 9 -46 -55 -180
-35 -74 -63 -120 -80 -131 -25 -16 -27 -16 -45 2 -19 19 -18 22 49 156 87 175
100 191 131 153z m-1460 -1155 c0 -5 -4 -10 -10 -10 -5 0 -10 5 -10 10 0 6 5
10 10 10 6 0 10 -4 10 -10z"/>
<path d="M18962 24558 c-15 -19 -32 -87 -25 -104 3 -8 11 -14 19 -14 8 0 14
-4 14 -10 0 -5 6 -10 14 -10 14 0 26 49 26 113 0 30 -4 37 -19 37 -10 0 -23
-6 -29 -12z"/>
<path d="M8104 24506 c-64 -45 -244 -378 -311 -576 -14 -41 -33 -93 -43 -116
-10 -23 -22 -63 -26 -90 -3 -27 -11 -60 -16 -74 -5 -13 -21 -81 -35 -150 -13
-69 -43 -195 -64 -280 -22 -85 -49 -195 -59 -245 -11 -49 -31 -126 -44 -170
-13 -44 -31 -109 -40 -145 -9 -36 -27 -108 -41 -160 -33 -127 -33 -149 8 -187
39 -38 168 -117 262 -162 39 -19 86 -47 106 -63 20 -15 40 -28 45 -28 4 0 16
-8 26 -17 18 -16 20 -16 43 12 20 24 24 42 25 92 0 100 21 317 31 329 5 7 14
101 19 210 11 211 22 337 45 524 9 63 20 187 25 275 5 88 11 187 14 220 4 67
21 230 40 380 7 55 11 123 10 150 -1 28 2 55 6 60 8 11 21 112 24 180 1 45
-15 55 -50 31z"/>
<path d="M12997 24453 c-10 -9 -8 -110 3 -195 14 -105 29 -470 35 -868 6 -357
31 -875 43 -894 11 -19 21 -284 28 -744 l7 -443 26 -28 c26 -28 33 -73 14 -92
-12 -12 -6 -681 6 -688 11 -7 31 -111 31 -163 0 -21 5 -38 10 -38 6 0 10 -9
10 -20 0 -11 5 -20 10 -20 6 0 10 -12 10 -27 0 -27 20 -94 31 -103 4 -3 8 -31
11 -62 3 -32 11 -66 20 -75 34 -39 27 -113 -10 -113 -9 0 -24 -9 -32 -20 -9
-13 -26 -20 -48 -20 -18 0 -44 -7 -58 -16 -13 -9 -58 -20 -99 -24 -67 -7 -105
-23 -105 -46 0 -4 80 -3 178 1 97 4 182 7 187 7 218 -16 204 -17 234 12 18 18
39 57 56 109 15 45 32 87 36 93 9 11 66 159 114 298 14 38 29 74 35 81 6 7 13
35 16 62 6 42 2 58 -29 118 -79 159 -95 186 -136 234 -23 28 -48 65 -56 84 -7
18 -23 41 -35 52 -12 11 -33 41 -45 66 -13 25 -30 51 -38 57 -8 7 -22 31 -33
54 -10 24 -40 68 -66 100 -62 72 -77 112 -53 138 10 11 140 81 289 155 149 74
300 151 336 172 71 39 130 72 230 125 36 20 92 50 125 68 33 17 74 44 90 60
17 15 49 39 73 54 72 45 77 32 -176 446 -35 58 -72 118 -81 134 -9 15 -33 58
-55 95 -21 36 -56 98 -79 136 -22 39 -52 90 -67 115 -15 25 -93 158 -175 295
-81 138 -160 268 -174 290 -15 22 -47 74 -71 115 -50 87 -75 128 -134 225 -23
39 -62 104 -86 145 -25 41 -67 111 -95 155 -28 44 -75 125 -104 180 -69 128
-129 194 -154 168z"/>
<path d="M19746 24362 c-5 -36 -3 -50 9 -58 8 -6 15 -20 16 -30 0 -11 3 -13 6
-6 2 6 13 12 24 12 22 0 23 4 9 29 -6 11 -6 30 0 50 9 33 8 35 -31 44 -25 6
-27 4 -33 -41z"/>
<path d="M18710 24361 c0 -6 5 -13 10 -16 6 -3 10 1 10 9 0 9 -4 16 -10 16 -5
0 -10 -4 -10 -9z"/>
<path d="M23195 24360 c-4 -6 -10 -8 -15 -5 -4 3 -3 -6 3 -20 16 -33 24 -31
29 5 4 29 -5 40 -17 20z"/>
<path d="M18910 24290 c0 -5 7 -10 15 -10 8 0 15 5 15 10 0 6 -7 10 -15 10 -8
0 -15 -4 -15 -10z"/>
<path d="M8191 24274 c0 -11 3 -14 6 -6 3 7 2 16 -1 19 -3 4 -6 -2 -5 -13z"/>
<path d="M23116 24269 c-11 -16 -14 -35 -10 -63 10 -75 14 -86 32 -86 20 0 25
18 26 105 1 48 -2 60 -16 63 -9 2 -23 -7 -32 -19z"/>
<path d="M25702 24248 c-18 -18 -16 -148 2 -148 18 0 24 21 26 80 3 84 -1 95
-28 68z"/>
<path d="M19708 24183 c-19 -5 -30 -31 -33 -78 -2 -16 -6 -50 -10 -75 -9 -56
7 -76 49 -60 26 9 26 10 26 115 0 58 -3 104 -7 104 -5 -1 -16 -3 -25 -6z"/>
<path d="M18827 24113 c-26 -7 -17 -35 14 -43 19 -6 29 -3 38 12 20 32 0 44
-52 31z"/>
<path d="M19864 24033 c-15 -11 -24 -41 -18 -58 4 -9 19 -15 41 -15 33 0 34 1
31 38 -2 28 -8 38 -23 40 -11 1 -25 -1 -31 -5z"/>
<path d="M8921 23962 c-1 -36 1 -41 13 -30 8 8 11 19 6 28 -4 8 -10 22 -13 30
-3 8 -6 -4 -6 -28z"/>
<path d="M23087 23983 c-13 -12 -7 -43 8 -43 9 0 15 9 15 25 0 24 -10 32 -23
18z"/>
<path d="M23052 23940 c0 -14 2 -19 5 -12 2 6 2 18 0 25 -3 6 -5 1 -5 -13z"/>
<path d="M16485 23865 c-9 -80 -4 -94 29 -88 21 4 26 11 26 33 0 16 5 30 12
32 10 4 9 14 0 46 -10 34 -17 42 -37 42 -22 0 -24 -5 -30 -65z"/>
<path d="M25632 23918 c-15 -15 -16 -148 -2 -148 16 0 30 46 30 100 0 51 -9
67 -28 48z"/>
<path d="M18742 23856 c-32 -19 -35 -23 -23 -38 40 -46 51 -62 51 -72 0 -6 6
-2 12 9 14 25 40 45 50 39 5 -3 8 13 8 35 0 41 0 41 -37 40 -21 -1 -48 -7 -61
-13z"/>
<path d="M18556 23837 c3 -10 9 -15 12 -12 3 3 0 11 -7 18 -10 9 -11 8 -5 -6z"/>
<path d="M19607 23813 c-24 -43 -9 -113 25 -113 10 0 34 15 54 34 33 31 34 35
16 40 -10 4 -27 15 -37 26 -18 20 -50 27 -58 13z"/>
<path d="M23018 23792 c-10 -2 -18 -7 -18 -12 0 -4 -9 -10 -20 -13 -27 -7 -26
-46 6 -165 3 -10 9 -10 23 -2 24 12 33 55 29 135 -3 51 -6 60 -20 57z"/>
<path d="M18516 23748 c-9 -36 -7 -48 9 -48 11 0 13 8 8 33 -8 41 -9 43 -17
15z"/>
<path d="M19811 23756 c-10 -12 -5 -22 27 -55 22 -23 44 -41 50 -41 12 0 26
58 20 87 -4 24 -79 31 -97 9z"/>
<path d="M16480 23689 c0 -5 5 -7 10 -4 6 3 10 8 10 11 0 2 -4 4 -10 4 -5 0
-10 -5 -10 -11z"/>
<path d="M16461 23675 c-1 -12 -6 -26 -12 -32 -7 -7 -8 -13 0 -17 12 -8 26 36
18 56 -3 7 -6 4 -6 -7z"/>
<path d="M19545 23550 c-9 -77 2 -160 21 -160 8 0 14 10 14 26 0 14 5 45 11
69 9 36 8 48 -5 67 -9 12 -16 30 -16 40 0 10 -4 18 -9 18 -5 0 -12 -27 -16
-60z"/>
<path d="M23726 23561 c-4 -5 -9 -71 -12 -148 -6 -132 -5 -137 11 -115 21 28
46 187 38 237 -5 33 -25 46 -37 26z"/>
<path d="M16445 23535 c-11 -33 -12 -161 -2 -172 15 -14 18 8 15 103 -3 82 -5
94 -13 69z"/>
<path d="M12760 23480 c0 -11 7 -20 15 -20 8 0 15 9 15 20 0 11 -7 20 -15 20
-8 0 -15 -9 -15 -20z"/>
<path d="M16406 23423 c9 -76 14 -80 14 -10 0 31 -5 59 -10 62 -7 4 -8 -13 -4
-52z"/>
<path d="M22907 23451 c-3 -16 -9 -42 -13 -57 -4 -16 -3 -26 1 -22 4 4 16 -1
26 -13 17 -20 17 -19 22 18 11 82 8 103 -12 103 -12 0 -20 -9 -24 -29z"/>
<path d="M16356 23244 c-14 -37 -2 -194 15 -194 5 0 9 7 9 16 0 9 5 12 12 8 7
-5 9 -2 5 9 -3 9 -1 17 5 19 6 2 13 37 16 77 4 67 3 72 -14 70 -10 -2 -24 0
-30 4 -7 4 -15 0 -18 -9z"/>
<path d="M23656 23175 c-22 -33 -23 -155 -1 -155 8 0 15 6 15 13 0 9 2 9 9 -1
11 -18 17 12 20 101 3 74 -12 89 -43 42z"/>
<path d="M8855 23076 c-4 -26 -4 -112 0 -191 6 -117 10 -145 22 -145 12 0 14
27 11 180 -2 119 -7 183 -15 191 -9 9 -13 0 -18 -35z"/>
<path d="M19961 23054 c0 -11 3 -14 6 -6 3 7 2 16 -1 19 -3 4 -6 -2 -5 -13z"/>
<path d="M26286 23055 c4 -8 8 -15 10 -15 2 0 4 7 4 15 0 8 -4 15 -10 15 -5 0
-7 -7 -4 -15z"/>
<path d="M19957 22959 c1 -29 7 -57 14 -63 9 -8 10 0 5 38 -3 27 -6 55 -6 62
0 8 -4 14 -8 14 -4 0 -7 -23 -5 -51z"/>
<path d="M19963 22851 c-6 -16 -7 -34 -3 -41 4 -7 10 3 14 25 9 46 4 54 -11
16z"/>
<path d="M23596 22864 c-25 -25 -29 -63 -17 -156 1 -5 10 -8 22 -8 19 0 20 5
18 90 -1 50 -3 90 -5 90 -1 0 -10 -7 -18 -16z"/>
<path d="M16291 22761 c-8 -5 -15 -35 -19 -79 -5 -78 2 -122 21 -122 31 0 52
175 22 186 -8 4 -12 10 -9 15 7 11 3 11 -15 0z"/>
<path d="M11833 22675 c0 -27 2 -38 4 -22 2 15 2 37 0 50 -2 12 -4 0 -4 -28z"/>
<path d="M11823 22573 c-13 -34 -17 -482 -4 -502 18 -29 24 17 29 253 5 245
-2 313 -25 249z"/>
<path d="M18547 22553 c-12 -70 -7 -127 12 -152 l19 -24 5 29 c4 16 8 63 9
104 3 70 1 75 -18 78 -18 3 -22 -4 -27 -35z"/>
<path d="M8055 22459 c-4 -6 -4 -31 0 -57 7 -41 9 -44 16 -22 17 58 5 115 -16
79z m12 -21 c-3 -8 -6 -5 -6 6 -1 11 2 17 5 13 3 -3 4 -12 1 -19z"/>
<path d="M23511 22382 c-12 -23 -13 -113 -1 -132 14 -23 35 113 21 138 -7 13
-11 12 -20 -6z"/>
<path d="M20065 22296 c-9 -47 1 -73 30 -79 23 -4 25 -2 25 39 0 40 -18 74
-40 74 -5 0 -12 -15 -15 -34z"/>
<path d="M16208 22178 c-5 -114 -1 -138 23 -138 18 0 19 6 14 91 -9 164 -30
191 -37 47z"/>
<path d="M21509 22190 c-19 -10 -41 -26 -48 -34 -8 -9 -19 -16 -25 -16 -6 0
-36 -16 -66 -36 -82 -54 -240 -143 -370 -209 -63 -32 -167 -85 -230 -118 -63
-33 -128 -67 -145 -75 -16 -8 -40 -23 -51 -34 -26 -23 -114 -48 -171 -48 -43
0 -52 6 -92 59 -39 53 -56 -17 -22 -92 50 -112 61 -141 61 -160 0 -11 11 -39
23 -61 13 -23 32 -66 42 -96 10 -30 27 -75 39 -100 14 -33 19 -62 18 -110 -1
-36 2 -78 7 -95 5 -16 10 -24 10 -17 1 19 19 14 26 -8 3 -11 15 -20 26 -20 12
0 19 -7 19 -20 0 -11 6 -20 14 -20 8 0 17 -15 21 -36 4 -21 20 -50 41 -70 19
-19 34 -43 34 -53 0 -10 3 -33 6 -50 6 -27 4 -31 -15 -31 -18 0 -21 6 -21 39
0 41 -11 51 -56 51 -21 0 -24 5 -24 35 0 28 -4 35 -20 35 -13 0 -20 7 -20 20
0 13 -7 20 -20 20 -16 0 -20 7 -20 35 0 24 -5 35 -15 35 -10 0 -15 -10 -15
-30 0 -20 -8 -35 -25 -46 -13 -9 -27 -24 -30 -35 -4 -10 -13 -19 -21 -19 -10
0 -14 -14 -14 -56 0 -35 -5 -61 -14 -70 -19 -18 -26 -18 -26 1 0 8 -7 15 -16
15 -12 0 -14 -7 -9 -30 6 -26 3 -30 -19 -36 -14 -3 -26 -12 -26 -18 0 -7 -12
-18 -26 -25 -21 -9 -25 -16 -20 -36 4 -14 2 -25 -3 -25 -5 0 -13 -9 -16 -20
-3 -11 -15 -20 -25 -20 -14 0 -22 -11 -30 -42 -6 -24 -17 -47 -24 -53 -21 -17
-36 -52 -36 -84 0 -25 -4 -31 -22 -31 -34 -1 -55 -21 -77 -73 -11 -26 -25 -47
-31 -47 -6 0 -16 -13 -21 -30 -6 -16 -14 -30 -19 -30 -4 0 -18 -20 -31 -45
-15 -28 -26 -40 -31 -32 -5 8 -8 6 -8 -6 0 -9 -11 -22 -24 -29 -26 -11 -52
-60 -41 -77 4 -8 -30 -11 -109 -11 -63 0 -117 3 -119 8 -3 4 -31 8 -64 10 -32
2 -119 8 -193 14 -74 5 -151 11 -171 12 -20 2 -42 7 -49 11 -7 4 -67 11 -134
16 -66 4 -152 12 -191 17 -38 6 -154 13 -256 17 l-186 7 -22 -23 c-13 -13 -27
-35 -32 -48 -13 -33 -12 -426 1 -450 5 -11 10 -39 10 -63 1 -24 7 -54 15 -68
8 -14 14 -34 15 -46 0 -46 202 -101 420 -114 85 -5 219 -14 298 -21 141 -11
144 -12 173 -41 17 -19 29 -25 29 -17 0 11 2 11 10 -1 6 -9 5 -17 -3 -22 -9
-6 -9 -8 1 -8 7 0 10 -4 7 -10 -3 -5 -15 -10 -26 -10 -10 0 -19 -7 -19 -15 0
-9 -9 -15 -24 -15 -15 0 -27 -7 -31 -19 -3 -10 -15 -21 -25 -24 -13 -3 -20
-14 -20 -29 0 -12 -14 -37 -30 -55 -17 -18 -30 -37 -30 -42 0 -6 -12 -24 -27
-40 -53 -56 -73 -83 -73 -97 0 -8 -4 -14 -10 -14 -5 0 -10 -9 -10 -20 0 -13
-10 -24 -25 -30 -14 -5 -25 -16 -25 -24 0 -7 -6 -16 -14 -19 -8 -3 -17 -19
-21 -36 -4 -17 -23 -49 -43 -71 -54 -57 -59 -64 -66 -88 -4 -13 -16 -22 -27
-22 -10 0 -19 -4 -19 -9 0 -5 -13 -22 -30 -38 -16 -15 -30 -32 -30 -38 -1 -15
-36 -55 -49 -55 -6 0 -11 -8 -11 -19 0 -10 -22 -41 -49 -67 -27 -27 -51 -58
-55 -69 -3 -11 -22 -29 -42 -40 -33 -18 -35 -22 -30 -54 3 -19 11 -38 18 -42
7 -5 129 -7 271 -6 232 2 259 0 268 -15 5 -10 17 -14 29 -11 11 3 20 0 20 -6
0 -6 9 -11 21 -11 34 0 16 -24 -25 -35 -47 -11 -1064 25 -1134 40 -15 4 -29
20 -41 48 -10 23 -25 48 -34 55 -12 10 -94 13 -364 12 -284 0 -359 3 -408 15
-32 9 -61 18 -63 20 -3 2 -4 161 -3 353 2 340 -3 402 -30 402 -24 0 -125 -32
-127 -40 -2 -6 -7 -8 -12 -5 -5 3 -16 -2 -24 -11 -11 -10 -16 -11 -16 -3 0 7
-3 10 -6 6 -3 -3 -5 -64 -5 -136 2 -124 1 -130 -21 -145 -12 -9 -18 -16 -13
-16 5 0 4 -5 -3 -12 -16 -16 -15 -43 1 -60 6 -7 14 -43 16 -80 3 -59 1 -68
-14 -68 -12 0 -15 -5 -11 -16 3 -9 6 -31 6 -50 0 -22 5 -34 13 -34 8 0 19 -10
25 -22 6 -13 11 -17 11 -10 1 7 6 10 11 7 6 -3 10 2 10 12 0 15 2 16 10 3 5
-8 10 -10 10 -4 0 19 28 24 45 8 11 -12 15 -12 15 -2 0 7 6 4 12 -7 6 -11 14
-22 17 -25 4 -3 14 -17 23 -31 20 -31 21 -31 -102 -33 l-85 -2 -6 -39 c-4 -22
-7 -117 -7 -210 -1 -205 -10 -236 -79 -272 -27 -14 -218 -21 -760 -28 -377 -4
-424 -10 -439 -50 -3 -8 3 -66 15 -128 11 -61 25 -159 31 -217 6 -58 22 -179
35 -270 13 -91 33 -244 45 -340 22 -189 37 -298 75 -545 14 -88 32 -218 40
-290 8 -71 24 -184 34 -250 11 -66 25 -165 30 -220 6 -55 21 -174 35 -265 14
-91 28 -196 31 -235 4 -38 11 -88 15 -110 5 -22 18 -114 30 -205 11 -91 29
-221 40 -290 18 -116 31 -209 95 -680 13 -96 29 -200 35 -230 5 -30 17 -110
26 -179 8 -68 21 -160 29 -205 8 -45 24 -157 35 -251 11 -93 27 -201 35 -240
8 -38 21 -128 30 -200 18 -151 46 -286 71 -341 13 -29 17 -69 18 -154 1 -66
10 -172 23 -250 26 -157 44 -271 73 -465 12 -77 32 -207 46 -290 13 -82 31
-205 39 -272 9 -68 22 -153 29 -190 8 -38 24 -147 36 -243 12 -96 23 -178 26
-181 4 -7 42 -264 99 -674 42 -295 90 -622 140 -955 14 -91 32 -223 41 -294 8
-71 21 -156 29 -190 7 -34 21 -129 30 -213 9 -84 22 -176 30 -205 7 -29 21
-115 30 -190 19 -149 15 -176 -28 -216 -45 -41 -257 -163 -338 -193 -46 -17
-121 -49 -165 -70 -45 -22 -85 -39 -90 -39 -5 0 -20 -12 -33 -25 -28 -31 -41
-24 -41 21 0 19 -4 34 -10 34 -5 0 -10 6 -10 14 0 8 -9 18 -21 21 -50 16
-1294 -8 -1574 -31 -22 -1 -75 -3 -117 -3 -67 -1 -78 -3 -78 -18 0 -15 2 -16
10 -3 8 13 10 13 10 -2 0 -9 -5 -18 -11 -20 -8 -3 -6 -10 5 -20 9 -9 16 -24
16 -33 0 -9 6 -15 13 -14 27 3 37 -2 37 -21 0 -11 5 -20 12 -20 6 0 4 -7 -5
-18 -10 -10 -17 -25 -17 -33 0 -7 -11 -25 -25 -39 -13 -14 -35 -36 -47 -50
-50 -55 -102 -87 -156 -94 -32 -4 -60 -2 -72 4 -11 6 -35 13 -53 15 -17 2 -33
9 -35 15 -2 5 -32 10 -68 10 -36 0 -64 4 -64 10 0 6 -29 10 -66 10 -44 0 -70
5 -80 14 -8 8 -45 18 -84 22 -65 6 -69 8 -59 26 6 10 9 24 7 30 -4 12 -74 38
-103 38 -10 0 -38 7 -61 16 -35 13 -45 23 -59 60 -26 67 -18 96 30 112 39 13
114 12 145 -1 8 -4 23 0 34 8 17 13 17 14 -3 36 -17 19 -21 20 -21 6 0 -9 -4
-17 -10 -17 -5 0 -10 18 -10 40 0 22 -4 40 -10 40 -5 0 -10 7 -10 15 0 8 -6
16 -12 16 -32 4 -61 -1 -75 -13 -21 -17 -82 -38 -112 -38 -14 0 -33 -8 -44
-17 -10 -10 -29 -19 -41 -20 -37 -3 -107 -23 -129 -38 -12 -7 -42 -18 -67 -24
-25 -5 -58 -13 -75 -17 -16 -3 -49 -9 -73 -11 -28 -3 -47 -12 -57 -26 -10 -15
-28 -21 -70 -25 -30 -2 -55 -8 -55 -12 0 -4 -46 -10 -101 -13 -86 -5 -108 -10
-138 -31 -35 -24 -43 -25 -261 -32 -124 -4 -234 -7 -246 -8 -11 -1 -28 -7 -37
-15 -15 -12 -17 -10 -17 15 0 16 -10 42 -23 58 l-23 28 -105 -11 c-57 -6 -265
-16 -461 -21 -218 -6 -369 -15 -385 -22 -16 -6 -41 -16 -58 -23 -22 -9 -154
-15 -475 -19 -535 -8 -640 -13 -640 -32 0 -15 -2 -15 -140 -16 -69 0 -102 -4
-120 -16 -20 -13 -62 -16 -219 -18 -106 -2 -195 -5 -197 -7 -8 -7 844 -18 872
-11 39 10 664 -15 694 -28 61 -26 1260 -42 1268 -17 2 5 16 9 32 9 16 0 31 6
33 13 4 9 6 9 6 0 1 -15 47 -17 56 -3 3 6 22 10 41 10 19 0 34 5 34 10 0 6 9
10 19 10 11 0 21 5 23 11 2 6 23 9 53 6 40 -3 45 -5 28 -11 -36 -13 -27 -26
17 -26 33 0 40 3 40 20 0 19 7 20 90 20 53 0 90 4 90 10 0 6 14 10 30 10 17 0
30 5 30 10 0 6 18 10 40 10 22 0 40 5 40 10 0 6 30 10 70 10 40 0 70 4 70 10
0 6 8 10 18 10 10 0 24 9 32 20 15 21 50 28 50 10 0 -5 14 -10 30 -10 23 0 30
4 30 20 0 13 7 20 20 20 11 0 20 5 20 10 0 6 26 10 59 10 38 0 61 5 65 13 5 9
7 9 12 0 9 -20 24 -15 24 7 0 13 7 20 19 20 11 0 22 6 25 13 5 9 7 9 12 0 3
-7 22 -13 41 -13 45 0 84 -37 59 -56 -22 -15 -20 -37 4 -54 12 -8 20 -26 20
-42 0 -33 17 -37 23 -5 3 16 5 13 6 -10 0 -18 5 -33 11 -33 5 0 7 -13 4 -30
-5 -23 -3 -30 9 -30 17 0 27 -21 27 -56 0 -17 6 -24 20 -24 11 0 20 -4 20 -10
0 -6 29 -10 66 -10 67 0 94 -13 94 -44 0 -9 8 -16 20 -16 13 0 20 -7 20 -20 0
-11 5 -20 10 -20 6 0 10 7 10 16 0 8 6 22 14 30 17 16 56 19 56 4 0 -5 7 -10
15 -10 8 0 15 -4 15 -10 0 -5 9 -10 20 -10 11 0 20 -4 20 -10 0 -5 9 -10 20
-10 13 0 20 -7 20 -20 0 -17 7 -20 40 -20 33 0 40 3 40 20 0 18 7 20 80 20 47
0 80 -4 80 -10 0 -6 33 -10 80 -10 71 0 80 2 80 18 0 14 13 22 50 32 28 7 50
19 50 25 0 11 60 31 128 42 30 5 32 8 32 44 0 32 3 39 20 39 11 0 20 5 20 11
0 5 6 7 13 3 8 -5 8 -2 -2 9 -12 16 -8 22 12 18 5 -1 11 8 14 19 3 11 13 20
23 20 10 0 21 6 23 13 3 7 6 5 6 -5 1 -10 6 -19 11 -19 6 -1 15 -3 20 -4 6 -1
15 -3 20 -4 6 0 10 -8 10 -16 0 -9 7 -18 16 -22 13 -5 13 -7 2 -14 -9 -6 -4
-9 15 -9 20 0 32 -8 47 -32 10 -17 17 -35 15 -39 -3 -4 2 -9 10 -13 8 -3 12
-12 9 -21 -4 -8 -1 -15 6 -15 19 0 50 -43 44 -62 -4 -14 -1 -16 13 -11 10 3
15 2 10 -2 -4 -5 -1 -18 6 -29 29 -45 8 -220 -24 -200 -5 3 -9 -2 -9 -10 0 -9
-8 -16 -19 -16 -11 0 -36 -16 -57 -35 -26 -24 -41 -32 -48 -25 -16 16 -26 12
-26 -10 0 -17 -7 -20 -50 -20 -38 0 -50 -4 -50 -15 0 -17 55 -21 65 -5 3 6 12
10 18 10 8 0 8 -3 -1 -9 -41 -26 176 -23 223 3 17 9 35 16 42 16 10 0 51 47
121 140 11 14 34 54 53 90 19 36 37 67 40 70 4 3 10 16 14 30 4 14 13 32 20
40 8 8 32 53 55 100 60 123 92 172 115 178 11 2 115 6 230 7 116 2 228 8 250
13 22 5 34 10 28 11 -21 2 -14 21 7 21 40 0 100 25 106 44 4 13 8 15 14 6 5
-8 15 -5 34 14 33 29 56 25 52 -11 -3 -26 -28 -47 -48 -41 -7 3 -25 -8 -40
-24 -16 -16 -38 -28 -53 -28 -14 0 -25 -3 -25 -8 0 -10 -37 -48 -110 -112
-121 -105 -132 -123 -107 -181 10 -26 28 -42 73 -64 l59 -30 850 -1 c542 -1
881 -6 935 -13 47 -6 110 -13 140 -17 30 -3 60 -12 65 -19 6 -6 24 -15 40 -18
17 -3 50 -11 75 -17 25 -6 59 -14 75 -17 17 -3 35 -9 40 -13 28 -20 113 -42
235 -61 36 -5 81 -16 100 -24 45 -18 117 -37 155 -40 17 -1 71 -12 120 -24 50
-12 113 -27 140 -32 28 -6 64 -15 81 -20 17 -5 51 -9 77 -9 25 0 48 -4 51 -9
3 -4 22 -11 43 -14 21 -4 58 -11 83 -17 93 -22 206 -41 244 -40 21 0 46 -6 55
-14 15 -13 99 -25 186 -25 23 0 57 -7 77 -16 29 -12 60 -14 140 -9 97 6 105 5
138 -18 160 -110 418 -232 545 -258 311 -65 453 -80 760 -80 149 0 299 5 335
11 94 14 179 57 221 110 l34 43 -1 116 c-1 103 -3 121 -27 170 -15 30 -27 64
-27 76 0 29 -96 215 -152 294 -25 36 -56 81 -69 101 -37 53 -95 124 -189 229
-47 52 -97 111 -111 130 -39 51 -76 179 -88 305 -26 253 -41 419 -51 575 -6
91 -17 217 -25 280 -14 109 -24 233 -45 525 -5 72 -16 177 -24 235 -8 58 -18
143 -21 190 -19 252 -37 435 -49 515 -8 50 -20 153 -26 230 -7 77 -20 199 -31
270 -11 72 -24 173 -29 225 -26 253 -33 314 -50 435 -10 72 -21 175 -25 230
-4 55 -20 194 -36 308 -16 114 -29 228 -29 252 0 25 -11 129 -25 232 -33 248
-34 256 -45 417 -6 76 -15 157 -20 180 -5 22 -18 138 -29 256 -12 118 -30 301
-41 405 -11 105 -27 267 -35 360 -9 94 -22 215 -30 270 -8 55 -19 163 -25 240
-6 77 -20 212 -30 300 -11 88 -24 212 -30 275 -12 137 -51 495 -85 780 -14
113 -32 277 -40 365 -8 88 -24 223 -34 300 -11 77 -25 203 -31 280 -6 77 -19
199 -30 270 -11 72 -26 213 -35 315 -9 102 -22 223 -30 270 -8 47 -19 127 -25
179 -15 132 -37 162 -77 105 -43 -62 -87 -104 -121 -115 -20 -6 -42 -16 -48
-21 -7 -5 -41 -11 -76 -15 -58 -5 -70 -3 -130 26 -74 36 -162 120 -197 189
-12 23 -42 89 -67 148 -41 97 -46 118 -59 247 -8 78 -15 171 -15 207 0 43 -5
73 -16 88 -15 22 -73 53 -124 67 -73 21 -91 86 -37 139 l32 32 260 -1 c169 -1
266 2 277 9 13 8 21 5 36 -12 24 -27 32 -28 32 -2 0 11 5 20 10 20 6 0 10 11
10 25 0 14 9 44 21 67 15 30 18 43 9 48 -9 5 -9 9 -1 14 16 10 14 26 -4 26
-23 0 -18 18 10 36 23 15 25 23 25 88 0 60 3 74 20 86 16 12 20 26 20 72 0 45
3 56 14 52 8 -3 17 -16 20 -30 4 -13 10 -24 15 -24 10 0 8 90 -4 135 -4 17 -4
27 0 23 4 -4 16 3 26 16 21 27 25 41 8 31 -5 -4 -3 10 5 30 9 21 16 52 16 71
0 18 4 35 10 39 5 3 7 12 3 20 -3 8 -1 15 5 15 6 0 8 9 5 20 -3 11 0 20 6 20
6 0 11 8 11 18 0 10 5 23 11 29 9 9 9 23 1 52 -5 23 -6 39 -2 36 4 -2 13 15
20 38 17 53 38 97 56 115 8 7 14 33 14 57 0 26 5 45 13 48 9 3 9 8 -2 21 -13
15 -12 18 7 23 18 4 22 13 22 45 0 24 8 51 21 69 19 27 18 34 -4 30 -5 -1 -6
3 -2 9 3 6 11 8 16 5 9 -6 13 14 10 53 -1 12 2 22 6 22 4 0 9 19 11 42 2 24 7
47 12 52 6 6 10 17 10 26 0 9 8 25 18 36 9 10 18 28 20 39 2 11 5 29 7 40 2
11 4 23 4 27 1 4 7 13 15 21 9 8 16 38 17 70 1 31 6 54 11 51 8 -5 9 -5 14 66
4 59 9 82 28 119 9 16 16 42 16 57 0 15 7 35 15 44 8 9 18 39 21 66 4 27 13
52 20 57 7 4 11 14 8 22 -4 8 -1 15 5 15 6 0 11 16 11 36 0 23 11 55 28 83 39
63 54 105 50 133 -2 12 4 30 13 38 17 16 33 64 18 54 -5 -3 -9 4 -9 15 0 23
15 28 24 9 3 -7 3 -3 0 10 -4 15 -1 22 9 22 20 0 29 50 11 57 -20 8 -17 36 6
53 11 8 20 25 20 38 0 27 21 52 44 52 15 0 30 37 41 101 6 31 -3 57 -55 170
-34 74 -68 150 -75 169 -7 20 -28 67 -47 105 -20 39 -45 99 -57 134 -12 35
-31 75 -42 89 -12 16 -19 40 -19 67 0 38 3 44 28 51 15 4 33 8 40 9 8 0 22 10
32 23 10 12 25 22 34 22 15 0 35 9 76 32 8 4 31 15 50 24 19 9 48 22 63 30 16
8 36 14 46 14 10 0 27 11 39 25 12 14 30 25 41 25 10 0 35 11 55 25 20 14 43
25 51 25 8 0 15 4 15 10 0 5 19 14 43 21 44 11 98 41 131 71 10 9 45 26 76 36
32 11 69 30 84 43 15 13 48 32 73 42 26 10 59 27 75 39 25 17 29 26 26 61 -2
22 -7 42 -13 43 -5 2 -26 -5 -46 -16z m-2797 -2326 c34 -5 60 -8 182 -18 38
-4 73 -9 78 -12 12 -7 88 -12 343 -19 258 -8 255 -7 255 -102 -1 -32 -7 -69
-15 -83 -8 -14 -14 -36 -15 -51 0 -28 -45 -103 -81 -135 -37 -33 -65 -35 -231
-19 -84 8 -193 17 -243 20 -209 13 -254 16 -320 26 -203 30 -291 60 -299 102
-3 12 -7 74 -10 138 -5 115 -5 118 20 144 l26 28 138 -7 c77 -4 154 -9 172
-12z m1275 -1646 c-3 -7 -5 -2 -5 12 0 14 2 19 5 13 2 -7 2 -19 0 -25z m-2020
-3895 c15 -40 50 -165 74 -258 11 -44 30 -120 43 -170 13 -49 31 -119 39 -155
21 -91 78 -311 121 -465 19 -71 58 -218 87 -325 28 -107 64 -242 79 -300 15
-58 38 -145 49 -195 12 -49 35 -135 52 -190 16 -55 35 -125 42 -155 13 -53 24
-91 82 -295 14 -49 35 -130 46 -180 10 -49 26 -110 34 -135 8 -25 21 -88 30
-140 8 -52 26 -142 40 -200 24 -105 41 -188 95 -460 16 -80 38 -192 49 -250
12 -58 32 -154 46 -215 27 -122 53 -259 90 -470 14 -77 29 -156 35 -175 6 -19
17 -78 25 -130 8 -52 26 -149 39 -215 14 -66 26 -133 26 -150 0 -16 9 -73 21
-125 11 -52 31 -156 44 -230 13 -74 36 -200 50 -280 14 -80 34 -181 45 -225
11 -44 24 -114 30 -155 6 -41 22 -122 35 -180 13 -58 30 -148 39 -200 8 -52
24 -138 35 -190 11 -52 27 -131 35 -175 9 -44 25 -129 36 -190 101 -537 97
-509 77 -588 -19 -76 -28 -157 -16 -157 5 0 9 -9 9 -20 0 -11 -4 -20 -10 -20
-22 0 -60 24 -60 38 0 19 -29 52 -45 52 -15 0 -16 30 -1 31 6 0 -1 4 -17 9
-15 5 -100 9 -190 9 -89 1 -292 6 -452 11 -159 5 -311 7 -336 4 -43 -5 -49 -2
-78 28 -59 63 -68 96 -85 313 -9 110 -18 247 -21 305 -4 58 -15 193 -25 300
-11 107 -27 330 -35 495 -9 165 -22 374 -30 465 -14 156 -25 321 -45 685 -5
88 -14 203 -19 255 -5 52 -12 149 -16 215 -3 66 -8 154 -10 195 -2 41 -9 156
-15 255 -6 99 -15 243 -20 320 -5 77 -14 230 -20 340 -6 110 -19 353 -30 540
-23 393 -26 458 -40 770 -6 127 -13 250 -15 275 -9 86 -44 666 -50 840 -3 96
-12 261 -20 365 -39 520 -45 824 -16 858 19 24 27 21 38 -10z m-1227 -2072 c0
-6 -5 -13 -10 -16 -15 -9 -43 3 -35 15 8 13 45 13 45 1z m3700 -1 c0 -5 -10
-10 -22 -9 -22 0 -22 1 -3 9 11 5 21 9 23 9 1 1 2 -3 2 -9z m-3895 -75 c-32
-14 -41 -13 -30 4 3 6 18 11 33 10 l27 -1 -30 -13z m-135 -55 c0 -12 -44 -24
-62 -17 -8 3 -4 9 12 15 32 14 50 14 50 2z m4106 -201 c-6 -30 -114 -162 -147
-179 -12 -7 -19 -3 -29 14 -17 33 4 68 81 139 71 66 105 75 95 26z m-3920
-830 c8 -7 14 -22 12 -33 -5 -33 -68 -34 -104 -2 -29 26 -29 26 -9 42 22 17
77 13 101 -7z m-458 -4725 c-10 -10 -21 -13 -29 -8 -12 7 0 14 41 23 2 1 -3
-6 -12 -15z m3502 -64 c0 -20 -15 -25 -44 -14 -12 5 -13 9 -3 20 18 21 47 17
47 -6z m10 -50 c7 12 10 8 10 -16 0 -23 -5 -33 -19 -37 -23 -6 -35 16 -25 46
5 16 8 17 15 6 8 -12 11 -12 19 1z m33 -177 c3 -16 0 -74 -6 -130 -10 -89 -13
-102 -31 -107 -12 -3 -22 -1 -24 4 -2 6 -10 10 -18 10 -9 0 -14 11 -14 35 0
24 5 35 15 35 12 0 15 14 15 70 0 40 4 70 10 70 6 0 10 9 10 20 0 32 37 26 43
-7z m-1335 -190 c-16 -2 -28 -11 -28 -19 0 -11 -22 -14 -122 -12 -100 2 -107
3 -40 5 45 2 82 8 82 13 0 8 52 16 110 17 22 0 22 0 -2 -4z m1412 -273 c6 0
10 -7 10 -15 0 -8 5 -15 10 -15 6 0 10 -5 10 -10 0 -6 18 -30 40 -53 37 -38
39 -42 21 -49 -23 -8 -71 3 -71 17 0 23 -20 65 -31 65 -7 0 -9 10 -7 25 4 21
1 25 -18 25 -13 0 -24 4 -24 9 0 5 -9 13 -20 16 -21 7 -28 49 -10 60 6 3 10
18 10 33 1 22 8 14 36 -40 19 -38 39 -68 44 -68z"/>
<path d="M18491 22123 c1 -16 -2 -53 -6 -84 -7 -51 -5 -58 13 -68 20 -10 20
-8 20 84 0 73 -3 95 -14 95 -8 0 -13 -11 -13 -27z"/>
<path d="M11819 21943 c-2 -138 2 -357 7 -362 20 -21 28 114 19 317 -4 78 -11
142 -16 142 -5 0 -10 -44 -10 -97z"/>
<path d="M26463 21840 c-23 -9 -43 -62 -43 -113 0 -16 -5 -37 -11 -48 -5 -11
-14 -84 -18 -163 -11 -205 -27 -224 -186 -218 -33 2 -101 -1 -151 -6 -72 -7
-95 -13 -112 -30 -12 -12 -22 -26 -22 -31 0 -5 29 -16 65 -25 89 -22 376 -23
399 -1 8 8 21 15 28 15 8 0 28 15 46 33 l32 33 11 185 c6 101 13 215 16 252 3
43 0 80 -7 98 -13 32 -15 32 -47 19z"/>
<path d="M18437 21703 c-4 -6 -5 -18 -1 -26 3 -8 -3 -23 -13 -32 -15 -16 -19
-42 -23 -169 -3 -83 -4 -154 -2 -158 2 -4 12 0 22 10 15 13 21 39 27 112 9
104 2 282 -10 263z"/>
<path d="M8444 21633 c7 -7 87 -5 95 3 2 2 -20 4 -49 4 -29 0 -50 -3 -46 -7z"/>
<path d="M15502 20663 c6 -30 48 -44 113 -39 33 3 102 8 153 12 81 6 92 9 92
25 0 18 -10 19 -181 19 -165 0 -180 -1 -177 -17z"/>
<path d="M15883 20673 c9 -2 23 -2 30 0 6 3 -1 5 -18 5 -16 0 -22 -2 -12 -5z"/>
<path d="M24815 20339 l-36 -27 53 -7 c29 -4 71 -5 93 -3 l40 4 -33 9 c-19 4
-29 11 -23 14 6 4 -4 14 -23 22 -32 15 -35 15 -71 -12z"/>
<path d="M26250 20324 c-43 -11 -41 -11 55 -13 55 -1 118 -4 140 -5 36 -3 685
-6 728 -4 9 1 17 5 17 9 0 4 -8 11 -17 15 -28 14 -870 12 -923 -2z"/>
<path d="M27320 20330 c0 -5 5 -10 10 -10 6 0 10 5 10 10 0 6 -4 10 -10 10 -5
0 -10 -4 -10 -10z"/>
<path d="M7789 20293 c-14 -39 -11 -52 16 -59 36 -9 123 5 104 17 -8 5 -10 9
-4 9 23 0 -44 48 -74 52 -28 4 -34 1 -42 -19z"/>
<path d="M23293 20303 c9 -2 23 -2 30 0 6 3 -1 5 -18 5 -16 0 -22 -2 -12 -5z"/>
<path d="M12618 20083 c12 -2 32 -2 45 0 12 2 2 4 -23 4 -25 0 -35 -2 -22 -4z"/>
<path d="M12333 20012 c-8 -5 -3 -12 17 -19 24 -9 30 -9 30 2 0 7 6 16 13 18
6 3 -1 6 -18 6 -16 0 -35 -3 -42 -7z"/>
<path d="M15154 19629 c-13 -47 4 -169 24 -169 12 0 12 -3 2 -15 -7 -8 -10
-24 -7 -35 3 -13 0 -20 -9 -20 -8 0 -14 -8 -14 -18 0 -10 -7 -27 -15 -40 -9
-12 -17 -50 -20 -89 -2 -38 -8 -90 -15 -118 -13 -58 -5 -314 12 -357 l10 -28
217 -1 c183 0 660 -6 684 -8 4 -1 7 -7 7 -15 0 -8 5 -16 11 -18 8 -3 8 -66 0
-226 -5 -123 -7 -230 -4 -238 3 -10 21 -14 58 -14 45 0 55 3 60 20 3 11 14 20
23 20 22 0 51 88 34 99 -7 4 -15 96 -23 256 -15 335 -16 382 -7 440 11 67 10
482 0 520 -5 17 -13 30 -18 31 -5 0 -22 6 -37 12 -38 16 -40 15 -55 -9 -13
-20 -19 -20 -205 -15 -236 6 -307 14 -307 31 0 13 -48 18 -281 31 l-115 7 -10
-34z m916 -76 c19 -38 25 -233 11 -299 -8 -33 -23 -65 -41 -84 l-29 -31 -378
1 c-415 1 -493 8 -493 45 0 18 70 95 87 95 2 0 11 7 20 15 11 12 15 35 14 90
-1 69 1 75 19 75 14 0 20 6 18 17 -2 11 5 19 17 21 11 3 23 9 28 16 5 8 9 7
16 -3 5 -7 13 -11 18 -8 5 3 45 7 88 8 45 2 83 8 90 15 7 7 42 18 79 25 36 6
66 15 66 20 0 5 80 9 178 9 l179 0 13 -27z"/>
<path d="M7720 19470 c0 -48 1 -50 28 -50 36 0 55 34 38 65 -14 26 -27 35 -48
35 -15 0 -18 -9 -18 -50z"/>
<path d="M27258 19411 c-48 -48 -13 -59 202 -60 205 -1 240 4 240 30 0 27 -51
36 -250 43 -159 5 -177 3 -192 -13z"/>
<path d="M27758 19391 c12 -7 62 -4 62 5 0 2 -17 4 -37 4 -24 0 -33 -3 -25 -9z"/>
<path d="M27910 19379 c0 -6 -7 -17 -15 -25 -8 -9 -15 -19 -15 -24 0 -5 7 -15
15 -24 8 -8 15 -22 15 -30 0 -9 5 -16 10 -16 14 0 13 -57 -1 -62 -7 -2 -13
-32 -14 -73 -2 -39 -6 -87 -10 -107 -6 -33 -5 -38 11 -38 36 0 -5 -25 -48 -29
-5 -1 -8 -8 -8 -16 0 -8 -4 -15 -9 -15 -16 0 -25 -56 -50 -300 -16 -153 -22
-177 -45 -188 -17 -9 -18 -11 -3 -11 9 -1 17 -5 17 -11 0 -5 5 -10 10 -10 6 0
10 8 10 18 0 9 9 23 20 30 25 15 40 52 46 106 2 22 8 42 12 45 4 3 13 34 19
68 7 34 18 77 26 95 9 18 17 68 20 110 2 43 10 87 19 100 19 30 39 126 37 174
-2 24 6 55 20 81 12 24 24 64 28 89 5 39 3 49 -12 60 -22 17 -105 19 -105 3z"/>
<path d="M25588 19289 c-46 -13 -90 -62 -84 -92 3 -12 8 -87 11 -167 3 -80 9
-174 13 -210 4 -36 5 -255 4 -487 -3 -304 -1 -432 8 -457 9 -28 21 -40 58 -57
40 -18 68 -21 197 -21 146 -1 310 12 333 26 7 4 12 23 12 42 0 32 -2 34 -32
35 -139 3 -406 18 -418 23 -8 3 -25 21 -37 39 -22 31 -23 43 -23 214 0 156 2
182 17 194 13 12 86 13 402 11 212 -2 499 -7 638 -12 245 -8 298 -6 288 10 -3
5 4 15 15 23 23 16 26 59 36 517 l6 295 -29 25 c-66 56 -28 53 -728 56 -434 2
-662 0 -687 -7z m1280 -136 c25 -22 25 -11 23 -275 l-1 -218 -24 0 c-14 0 -28
-4 -31 -10 -8 -14 -55 -13 -55 1 0 6 -9 9 -20 6 -11 -3 -20 0 -20 6 0 7 -5 4
-11 -5 -12 -21 -61 -24 -81 -5 -8 7 -49 13 -113 14 -55 1 -170 7 -255 13 -85
6 -221 14 -301 19 -80 5 -155 13 -166 19 -33 18 -100 98 -127 150 -26 51 -29
97 -11 177 5 23 4 26 -4 15 -9 -12 -11 -11 -11 8 0 12 -6 22 -12 23 -10 0 -10
2 0 6 6 2 10 9 6 14 -3 5 0 9 6 9 6 0 17 6 24 13 10 10 83 12 322 10 205 -1
313 2 321 9 9 7 17 7 26 1 17 -14 337 -16 337 -3 0 5 7 10 15 10 8 0 15 -4 15
-10 0 -5 14 -10 30 -10 20 0 30 5 30 15 0 21 62 20 88 -2z"/>
<path d="M26240 19055 c0 -12 16 -15 80 -15 64 0 80 3 80 15 0 12 -16 15 -80
15 -64 0 -80 -3 -80 -15z"/>
<path d="M26080 18870 c0 -6 33 -10 80 -10 47 0 80 4 80 10 0 6 -33 10 -80 10
-47 0 -80 -4 -80 -10z"/>
<path d="M7712 19249 c-7 -21 -12 -51 -12 -66 0 -37 22 -112 27 -95 3 7 23 12
49 12 24 0 44 5 44 10 0 6 30 10 70 10 42 0 70 4 70 10 0 8 75 11 228 10 272
-1 252 -2 252 8 0 14 -48 32 -85 32 -19 0 -35 5 -35 10 0 6 -33 10 -80 10 -47
0 -80 4 -80 10 0 6 -33 10 -80 10 -47 0 -80 -4 -80 -10 0 -5 -9 -10 -20 -10
-11 0 -20 7 -20 15 0 11 -12 15 -52 15 -49 0 -117 17 -128 32 -3 4 -17 11 -31
16 -23 9 -26 7 -37 -29z"/>
<path d="M21245 19270 c-11 -18 6 -50 25 -50 10 0 22 5 25 10 3 6 1 10 -4 10
-6 0 -11 9 -11 20 0 21 -24 28 -35 10z"/>
<path d="M22511 19249 c-11 -13 -21 -26 -21 -30 0 -21 43 -99 55 -99 8 0 15 4
15 9 0 8 127 27 160 23 85 -8 340 -10 340 -2 0 6 9 10 20 10 11 0 20 5 20 10
0 17 35 11 58 -10 21 -19 22 -30 22 -155 0 -130 -1 -135 -31 -192 -18 -35 -46
-69 -67 -83 -34 -24 -42 -25 -243 -28 -114 -2 -230 1 -258 6 -55 10 -103 -4
-115 -33 -8 -21 -8 -182 0 -212 9 -34 71 -53 176 -53 152 0 471 -20 501 -32
l27 -10 0 -164 c0 -139 2 -164 15 -164 8 0 15 -4 15 -10 0 -5 11 -9 25 -8 37
3 43 38 50 308 3 129 10 278 16 330 13 127 22 433 14 484 -3 23 -13 51 -23 63
-17 22 -23 23 -342 32 -179 5 -334 11 -345 14 -11 4 -30 9 -41 12 -15 5 -28 0
-43 -16z"/>
<path d="M8517 19184 c-3 -4 -4 -41 0 -83 6 -86 -10 -186 -33 -195 -7 -3 -14
-16 -14 -28 0 -40 -80 -159 -144 -215 -36 -32 -55 -41 -93 -45 -44 -4 -452 6
-532 14 -27 2 -38 -2 -54 -24 -29 -38 -37 -186 -13 -242 14 -35 18 -38 43 -31
16 4 199 10 408 15 209 4 387 10 397 14 12 5 18 1 24 -16 14 -41 12 -171 -3
-220 -17 -55 -31 -59 -119 -34 -27 8 -110 17 -184 20 -353 17 -450 25 -482 42
-35 18 -71 5 -86 -33 -19 -51 -24 -107 -10 -126 13 -17 41 -18 471 -18 251 0
472 3 491 6 48 9 58 39 64 180 3 99 1 127 -13 160 -10 22 -23 67 -31 100 -12
55 -12 61 5 75 32 28 39 81 46 345 l7 260 -31 43 c-27 37 -36 42 -69 42 -21 0
-41 -3 -45 -6z"/>
<path d="M13130 18980 c-47 -5 -137 -6 -201 -3 -82 4 -118 2 -123 -6 -4 -6
-27 -11 -52 -11 -24 0 -44 -4 -44 -10 0 -5 -9 -10 -20 -10 -27 0 -25 -28 3
-33 l22 -4 -22 -2 c-16 -1 -23 -7 -23 -21 0 -11 -5 -20 -11 -20 -13 0 -1 -133
12 -138 5 -2 9 -12 9 -23 0 -10 5 -19 10 -19 6 0 10 9 10 20 0 17 7 20 50 20
28 0 50 -4 50 -10 0 -5 9 -10 19 -10 11 0 22 -6 25 -12 5 -10 7 -10 12 0 3 6
23 12 44 12 21 0 41 6 43 13 4 9 8 8 17 -3 9 -11 13 -12 17 -2 2 6 18 12 34
12 22 0 29 -5 29 -20 0 -11 7 -20 15 -20 8 0 15 -7 15 -15 0 -8 -6 -15 -14
-15 -8 0 -16 -6 -19 -13 -9 -24 -139 -42 -220 -30 -40 5 -126 9 -192 9 -66 -1
-218 -2 -337 -4 l-216 -2 -23 -36 c-22 -36 -22 -40 -14 -253 4 -119 8 -299 10
-401 4 -310 17 -604 28 -618 5 -7 18 -10 28 -7 11 4 19 2 19 -5 0 -6 12 -4 31
6 l32 16 -5 163 c-4 112 -2 167 5 174 14 14 577 15 624 2 26 -8 36 -6 57 12
29 25 97 183 146 337 18 58 45 143 61 190 70 213 99 320 99 372 0 32 6 62 15
74 8 10 15 30 15 44 0 37 35 144 77 238 31 69 14 76 -147 62z"/>
<path d="M21052 18765 c0 -16 2 -22 5 -12 2 9 2 23 0 30 -3 6 -5 -1 -5 -18z"/>
<path d="M27728 18355 c-8 -9 3 -55 14 -55 5 0 2 -7 -7 -16 -11 -11 -14 -25
-10 -45 6 -26 4 -28 -29 -35 -26 -4 -36 -11 -36 -25 0 -11 5 -19 10 -19 6 0
10 -9 10 -20 0 -16 7 -20 35 -20 28 0 36 4 39 23 3 12 8 36 11 52 15 71 16 93
6 99 -15 10 -14 26 3 26 7 0 16 9 19 20 4 17 0 20 -27 20 -18 0 -35 -2 -38 -5z"/>
<path d="M20767 18153 c-4 -3 -7 -20 -7 -36 0 -22 4 -28 16 -23 9 3 18 6 20 6
2 0 4 9 4 20 0 11 6 20 13 20 8 0 7 4 -3 10 -18 11 -34 13 -43 3z"/>
<path d="M27640 18030 c0 -32 4 -50 12 -50 9 0 9 -3 0 -12 -7 -7 -12 -20 -12
-30 0 -21 -16 -24 -23 -5 -3 6 -6 2 -6 -10 -1 -13 -5 -23 -11 -23 -6 0 -10
-27 -10 -60 0 -33 -4 -60 -10 -60 -16 0 -33 -81 -22 -105 9 -19 7 -25 -14 -35
-13 -8 -24 -17 -24 -22 0 -18 -29 -38 -54 -38 -25 0 -26 -1 -26 -70 0 -56 3
-70 15 -70 8 0 15 -6 15 -14 0 -8 -7 -16 -15 -20 -8 -3 -15 -18 -15 -34 0 -38
-17 -52 -61 -52 -68 0 -99 -11 -105 -37 -8 -30 -8 -30 46 -38 25 -3 71 -11
102 -17 70 -13 111 0 127 40 6 15 12 68 13 119 1 50 6 89 10 87 4 -3 8 0 8 6
0 6 4 9 9 5 13 -7 32 63 25 91 -3 12 -1 25 5 28 5 4 7 22 4 42 -4 23 -2 39 6
44 15 9 30 71 31 123 0 21 6 50 13 65 8 18 11 58 9 115 -3 78 -5 87 -23 87
-16 0 -19 -7 -19 -50z m27 -142 c-3 -7 -5 -2 -5 12 0 14 2 19 5 13 2 -7 2 -19
0 -25z"/>
<path d="M27710 18058 c0 -19 2 -20 10 -8 13 19 13 30 0 30 -5 0 -10 -10 -10
-22z"/>
<path d="M20683 17984 c-2 -7 0 -21 6 -31 6 -10 11 -12 11 -5 0 6 6 12 14 12
26 0 26 28 0 33 -16 3 -28 -1 -31 -9z"/>
<path d="M16460 17840 l0 -80 -70 0 -70 0 0 -40 0 -40 100 0 100 0 0 40 c0 22
5 40 10 40 6 0 10 33 10 80 l0 80 -40 0 -40 0 0 -80z"/>
<path d="M20605 17869 c-9 -14 15 -69 30 -69 14 0 25 22 25 50 0 26 -42 41
-55 19z"/>
<path d="M20564 17705 c-3 -7 -2 -21 3 -30 8 -14 11 -12 21 9 9 20 8 25 -4 30
-8 3 -17 -1 -20 -9z"/>
<path d="M12775 17588 c-25 -11 -49 -61 -40 -87 4 -14 0 -20 -19 -25 -26 -6
-29 -16 -41 -113 -4 -29 -11 -53 -15 -53 -5 0 -12 -16 -16 -35 -3 -20 -12 -35
-20 -35 -9 0 -14 -12 -14 -34 0 -19 -4 -38 -10 -41 -5 -3 -10 -15 -10 -26 0
-10 -4 -19 -10 -19 -5 0 -10 -15 -10 -34 0 -19 -4 -38 -10 -41 -5 -3 -10 -15
-10 -26 0 -10 -4 -19 -9 -19 -5 0 -12 -19 -16 -42 -7 -38 -24 -62 -60 -86 -22
-15 -33 -47 -21 -63 34 -48 129 39 150 138 4 18 12 35 17 38 5 4 9 16 9 28 0
12 9 33 20 47 11 14 20 33 20 43 0 9 9 26 20 37 11 11 20 33 20 48 0 15 4 32
9 38 18 19 64 170 62 207 -1 25 3 39 13 43 15 6 36 61 36 95 0 22 -19 29 -45
17z"/>
<path d="M20460 17584 c0 -19 24 -44 42 -44 7 0 19 9 26 20 11 18 10 20 -18
20 -16 0 -30 5 -30 10 0 6 -4 10 -10 10 -5 0 -10 -7 -10 -16z"/>
<path d="M22817 17203 c-2 -5 -4 -38 -5 -75 0 -65 0 -68 24 -68 19 0 24 5 24
25 0 14 -4 25 -10 25 -5 0 -10 7 -10 15 0 8 6 15 14 15 10 0 14 9 12 26 -4 32
-37 57 -49 37z"/>
<path d="M22874 16814 c-7 -38 2 -309 14 -427 6 -62 9 -67 24 -55 14 11 18 40
24 181 6 165 6 167 -15 167 -12 0 -21 5 -21 10 0 6 9 10 20 10 22 0 27 15 8
23 -10 4 -9 8 2 17 11 9 12 13 3 17 -7 2 -13 22 -13 43 0 25 -5 40 -16 44 -23
9 -23 9 -30 -30z"/>
<path d="M24199 16528 c0 -2 -2 -44 -4 -94 -2 -69 0 -91 10 -91 9 0 12 23 12
89 0 49 -4 91 -9 94 -4 3 -8 4 -9 2z"/>
<path d="M15107 16106 c-79 -79 -166 -156 -193 -171 -27 -15 -60 -35 -74 -45
-14 -9 -56 -28 -95 -41 -149 -51 -318 -20 -419 77 -59 56 -76 61 -107 28 -21
-22 -24 -35 -24 -102 0 -150 13 -255 40 -332 69 -194 140 -319 244 -432 179
-194 338 -245 556 -178 169 52 345 199 345 288 0 15 -16 67 -35 115 -19 48
-35 96 -35 108 0 12 22 60 49 108 27 47 64 128 81 180 56 166 37 276 -82 459
-40 62 -63 82 -92 82 -8 0 -80 -65 -159 -144z"/>
<path d="M24250 16175 c0 -8 5 -15 10 -15 6 0 10 7 10 15 0 8 -4 15 -10 15 -5
0 -10 -7 -10 -15z"/>
<path d="M22960 16093 c0 -25 0 -26 20 -8 11 10 20 22 20 27 0 4 -9 8 -20 8
-15 0 -20 -7 -20 -27z"/>
<path d="M22937 16036 c-4 -9 -4 -22 -2 -28 5 -14 13 -182 14 -285 1 -60 2
-63 26 -63 39 0 50 -58 37 -200 -6 -63 -8 -146 -6 -185 10 -161 16 -215 25
-215 5 0 9 -9 9 -20 0 -11 5 -20 10 -20 6 0 10 5 10 10 0 6 4 10 8 10 4 0 6
-92 4 -204 -3 -130 -1 -215 6 -237 6 -19 12 -64 14 -102 2 -52 6 -68 19 -72
10 -3 20 -13 23 -21 3 -8 8 -110 11 -227 3 -117 8 -231 11 -254 5 -42 6 -43
45 -43 32 0 39 3 39 20 0 11 -4 20 -9 20 -10 0 -6 302 4 362 6 31 4 37 -14 43
-16 5 -21 15 -21 41 0 22 -5 34 -13 34 -14 0 -27 150 -27 302 0 32 -4 58 -10
58 -5 0 -10 25 -10 55 0 86 -22 198 -42 216 -14 13 -18 32 -18 93 0 44 4 76
10 76 6 0 10 9 10 20 0 11 -6 19 -12 17 -15 -2 -22 44 -13 81 5 21 8 23 16 11
5 -9 9 23 9 89 0 61 -4 102 -10 102 -6 0 -10 29 -10 66 0 66 -13 94 -43 94
-17 0 -32 120 -22 163 4 14 2 28 -4 31 -6 4 -11 25 -11 47 0 32 -3 39 -20 39
-16 0 -20 7 -20 33 0 40 -14 66 -23 43z m100 -503 c-3 -10 -5 -2 -5 17 0 19 2
27 5 18 2 -10 2 -26 0 -35z"/>
<path d="M12125 15910 c-9 -14 4 -50 18 -50 7 1 23 7 37 15 25 14 25 14 3 15
-14 0 -23 6 -23 15 0 17 -25 20 -35 5z"/>
<path d="M11980 15410 c-93 -3 -157 -8 -146 -13 10 -4 88 -10 172 -14 85 -3
154 -10 154 -15 0 -4 7 -8 15 -8 8 0 15 -4 15 -10 0 -5 23 -10 50 -10 28 0 50
5 50 10 0 6 8 10 18 10 19 0 65 44 55 54 -7 6 -105 5 -383 -4z"/>
<path d="M25600 14575 c0 -10 10 -15 30 -15 20 0 30 5 30 15 0 10 -10 15 -30
15 -20 0 -30 -5 -30 -15z"/>
<path d="M27345 14528 c-7 -19 -15 -57 -16 -84 -2 -68 -9 -94 -24 -94 -17 0
-39 -27 -40 -52 -1 -11 -9 -25 -19 -30 -11 -6 -15 -16 -11 -28 3 -10 1 -21 -5
-25 -5 -3 -10 -13 -10 -21 0 -8 -9 -34 -21 -58 -11 -25 -19 -53 -18 -63 4 -23
-10 -63 -21 -63 -15 0 -41 -71 -36 -98 4 -18 -1 -37 -14 -57 -12 -18 -20 -47
-20 -72 0 -24 -3 -43 -8 -43 -16 0 -35 -47 -33 -82 1 -21 -3 -38 -9 -38 -5 0
-10 -8 -10 -18 0 -10 -3 -22 -7 -26 -5 -4 -8 -11 -8 -14 -2 -20 -18 -52 -26
-52 -5 0 -9 -16 -9 -36 0 -24 -8 -46 -25 -66 -16 -19 -25 -42 -25 -63 0 -19
-10 -50 -21 -70 -16 -27 -19 -39 -10 -48 13 -13 15 -31 2 -23 -11 7 -25 -23
-22 -47 4 -32 -19 -84 -44 -97 -13 -7 -23 -20 -23 -29 4 -36 -16 -118 -38
-152 -19 -31 -21 -38 -8 -51 12 -12 10 -19 -15 -53 -34 -47 -52 -99 -47 -138
2 -18 -5 -37 -20 -55 -41 -47 -57 -91 -50 -138 5 -38 3 -44 -13 -44 -20 0 -31
-18 -31 -51 0 -10 -4 -19 -8 -19 -5 0 -7 -23 -4 -50 5 -66 -6 -149 -19 -129
-7 11 -9 10 -9 -4 0 -12 -6 -17 -20 -15 -10 2 -20 -1 -21 -7 -1 -5 -10 -16
-20 -23 -24 -17 -24 -32 0 -25 20 5 37 -22 20 -32 -5 -4 -7 -10 -4 -15 10 -16
-16 -58 -34 -53 -14 3 -17 -3 -16 -31 1 -20 -2 -36 -7 -36 -5 0 -7 -3 -5 -7 3
-5 -1 -21 -8 -38 -7 -16 -14 -24 -14 -17 -1 6 -7 12 -15 12 -10 0 -17 -17 -22
-56 -4 -34 -14 -64 -25 -75 -21 -21 -25 -44 -9 -54 6 -3 10 -17 10 -31 0 -13
4 -24 8 -24 13 0 32 -95 32 -159 0 -45 5 -63 21 -82 19 -21 21 -33 16 -101 -3
-44 -1 -78 4 -78 5 0 9 -9 9 -20 0 -11 5 -20 10 -20 6 0 10 -9 10 -20 0 -11
-4 -20 -10 -20 -5 0 -10 -9 -10 -20 0 -11 -4 -21 -10 -21 -5 -1 -16 -2 -22 -3
-7 0 -14 -16 -16 -33 -3 -29 1 -35 30 -47 48 -21 237 -66 358 -85 96 -15 108
-20 142 -52 30 -28 38 -43 38 -71 0 -29 -5 -38 -34 -53 -29 -16 -39 -17 -61
-7 -15 7 -31 10 -35 7 -5 -3 -26 3 -47 14 -21 10 -67 21 -103 24 -36 3 -83 10
-105 15 -22 6 -79 13 -127 16 l-88 5 0 -24 c0 -16 6 -25 15 -25 8 0 15 -4 15
-9 0 -5 17 -12 38 -16 37 -7 72 -34 72 -55 0 -6 6 -18 14 -26 8 -7 17 -19 19
-26 4 -10 8 -9 16 2 6 8 11 10 11 5 0 -6 -10 -19 -22 -30 -20 -17 -21 -20 -5
-23 9 -2 17 -8 17 -13 0 -5 7 -9 15 -9 12 0 15 -16 15 -80 0 -47 4 -80 10 -80
6 0 10 -30 10 -69 0 -46 4 -71 13 -74 9 -4 8 -8 -3 -16 -11 -8 -12 -13 -3 -18
7 -5 14 -63 18 -155 6 -115 11 -148 21 -148 8 0 14 -4 14 -10 0 -5 17 -10 38
-10 l39 0 6 -98 c3 -53 3 -148 0 -210 -4 -72 -2 -112 4 -112 6 0 8 -37 5 -100
-4 -95 -4 -100 15 -100 19 0 21 -9 28 -150 l7 -150 34 0 c27 0 34 -4 34 -20 0
-11 4 -20 9 -20 5 0 12 -34 15 -75 3 -41 9 -109 12 -150 4 -52 10 -75 19 -75
10 0 14 -39 20 -160 6 -130 10 -160 22 -160 29 0 43 -28 43 -84 0 -31 5 -56
10 -56 6 0 10 -9 10 -20 0 -11 5 -20 10 -20 6 0 10 -30 10 -70 0 -40 4 -70 10
-70 6 0 10 -33 10 -80 0 -64 3 -80 15 -80 12 0 15 -16 15 -80 0 -47 4 -80 10
-80 6 0 10 -33 10 -80 0 -74 2 -80 20 -80 12 0 32 -11 45 -24 22 -22 24 -33
29 -163 9 -249 15 -293 37 -293 17 0 19 -8 19 -80 0 -60 3 -80 13 -80 14 0 37
-40 37 -65 0 -7 5 -15 10 -17 6 -2 13 -50 16 -108 4 -58 10 -107 14 -110 19
-13 30 -55 30 -114 0 -44 5 -69 15 -80 8 -8 15 -30 15 -49 0 -61 11 -97 30
-97 14 0 18 -13 23 -74 8 -89 14 -106 38 -106 29 0 27 -57 -3 -62 -13 -2 -22
-12 -24 -25 -3 -19 1 -23 25 -23 16 0 36 -7 45 -15 8 -8 21 -15 28 -15 10 0 9
3 -2 10 -11 7 0 10 38 10 35 0 52 -4 52 -12 0 -10 65 -13 285 -15 156 -1 289
-4 295 -8 17 -11 3 -22 -31 -23 -54 -1 -45 -12 10 -12 33 0 58 -5 67 -15 9 -8
11 -15 5 -15 -6 0 -11 -7 -11 -15 0 -11 -12 -15 -49 -15 -76 0 -111 -10 -111
-31 0 -11 5 -19 10 -19 6 0 10 -33 10 -80 0 -47 -4 -80 -10 -80 -6 0 -10 -29
-10 -66 0 -75 -12 -94 -59 -94 -28 0 -31 -3 -31 -32 -1 -38 -23 -69 -65 -89
-18 -8 -31 -23 -33 -37 -3 -16 -10 -22 -28 -22 -14 0 -32 -7 -40 -15 -14 -13
-14 -17 0 -31 9 -8 31 -18 49 -21 41 -6 145 13 166 31 9 7 25 12 36 10 21 -4
243 44 260 56 6 4 23 10 38 14 15 4 51 30 80 58 l52 51 0 74 c0 51 -4 76 -14
82 -7 5 -15 30 -17 57 -2 27 -9 99 -15 159 -5 61 -13 138 -15 173 -3 34 -9 60
-14 57 -21 -13 -28 36 -23 160 6 144 -16 317 -47 375 -9 17 -14 71 -16 175 -1
83 -6 161 -12 175 -5 14 -15 57 -22 95 -7 39 -17 73 -22 76 -6 4 -12 71 -14
150 -3 79 -9 162 -14 184 -6 22 -14 77 -19 123 -6 52 -15 90 -25 101 -13 14
-16 41 -16 134 0 64 -6 144 -14 179 -8 35 -17 103 -21 152 -5 66 -11 96 -26
116 -18 23 -19 32 -10 67 8 30 7 58 -4 119 -9 43 -20 132 -25 198 -6 65 -14
124 -19 130 -5 6 -11 36 -14 66 -2 30 -9 93 -15 140 -6 47 -16 128 -21 180 -6
52 -15 96 -21 98 -5 2 -10 29 -10 60 0 32 -5 75 -10 97 -10 41 -15 85 -26 237
-4 67 -10 90 -25 104 -14 13 -19 31 -19 70 0 88 -30 385 -41 405 -5 10 -14 19
-18 19 -5 0 -12 65 -16 145 -5 106 -11 147 -21 156 -8 7 -54 16 -102 21 -52 6
-109 20 -142 34 -30 14 -73 26 -95 27 -22 2 -53 9 -70 18 -25 12 -30 21 -33
57 l-3 42 106 0 c93 0 112 -3 155 -25 73 -37 180 -31 180 9 0 7 -11 25 -26 41
-19 21 -24 34 -19 55 9 41 -24 332 -39 350 -8 9 -16 52 -19 110 -6 123 -37
312 -52 325 -15 13 -24 84 -26 212 -1 57 -6 124 -11 150 -5 27 -11 63 -13 81
-2 18 -10 43 -18 55 -10 15 -16 63 -20 152 -3 72 -10 162 -16 202 -6 39 -13
100 -17 135 -3 35 -10 68 -15 74 -5 6 -11 69 -14 140 -4 71 -12 158 -20 194
-7 36 -16 97 -20 137 -4 46 -11 72 -18 70 -9 -1 -13 36 -14 128 -2 72 -10 166
-18 210 -8 44 -19 163 -24 265 -7 126 -17 209 -30 260 -27 100 -45 258 -38
334 7 79 -4 188 -21 194 -7 2 -19 -11 -27 -30z m-714 -2186 c-7 -2 -18 1 -23
6 -8 8 -4 9 13 5 13 -4 18 -8 10 -11z m-161 -488 c0 -7 -27 -34 -34 -34 -4 0
-1 9 6 20 12 19 28 27 28 14z m-50 -130 c0 -18 -23 -44 -39 -44 -15 0 -14 28
2 45 16 19 37 19 37 -1z m856 -773 c44 -27 46 -89 4 -162 -17 -30 -33 -62 -36
-72 -6 -15 -16 -20 -76 -32 -10 -2 -30 11 -47 30 -16 19 -31 31 -34 28 -10 -9
-19 107 -13 151 10 62 23 71 121 74 34 1 60 -4 81 -17z m444 -5021 c0 -5 -4
-10 -10 -10 -5 0 -10 5 -10 10 0 6 5 10 10 10 6 0 10 -4 10 -10z m508 3 c-10
-2 -26 -2 -35 0 -10 3 -2 5 17 5 19 0 27 -2 18 -5z"/>
<path d="M26636 14405 c-15 -8 -37 -26 -48 -40 -11 -14 -26 -25 -35 -25 -8 0
-38 -22 -67 -50 -57 -55 -137 -115 -179 -133 -15 -6 -30 -21 -33 -32 -10 -30
-35 -44 -77 -45 -24 0 -40 -5 -43 -15 -4 -8 -12 -15 -20 -15 -15 0 -18 -27 -8
-54 3 -9 12 -16 20 -16 8 0 14 -4 14 -10 0 -5 9 -10 20 -10 13 0 20 -7 20 -20
0 -13 7 -20 20 -20 13 0 20 7 20 20 0 13 7 20 19 20 11 0 23 5 26 10 3 6 25
10 48 10 48 0 66 16 84 70 l11 35 2 -35 c1 -19 2 -37 2 -40 -1 -12 62 -10 71
2 5 9 7 3 4 -16 -3 -17 -3 -36 0 -43 9 -24 21 -13 28 27 4 22 12 38 17 37 23
-4 30 97 12 155 -7 22 37 92 91 144 31 31 42 49 41 70 -1 34 -20 40 -60 19z
m-316 -395 c0 -5 -4 -10 -10 -10 -5 0 -10 5 -10 10 0 6 5 10 10 10 6 0 10 -4
10 -10z"/>
<path d="M26082 14170 c0 -19 2 -27 5 -17 2 9 2 25 0 35 -3 9 -5 1 -5 -18z"/>
<path d="M26360 13944 c0 -9 -9 -18 -20 -21 -16 -4 -20 -14 -20 -44 0 -47 15
-59 24 -18 3 18 10 28 17 24 6 -5 10 0 8 11 -2 11 2 29 9 42 11 18 10 22 -3
22 -8 0 -15 -7 -15 -16z"/>
<path d="M26500 13889 c-6 -11 -10 -25 -7 -32 2 -6 9 3 15 21 12 36 8 42 -8
11z"/>
<path d="M26445 13832 c-4 -15 -9 -38 -10 -52 -1 -14 -5 -45 -9 -70 l-7 -45
20 25 c11 14 20 36 19 50 0 14 7 39 16 55 20 38 20 42 -3 54 -16 9 -20 6 -26
-17z"/>
<path d="M23205 13728 c5 -18 9 -93 10 -165 1 -119 10 -171 22 -135 3 7 22 12
44 12 l39 0 0 60 0 60 -30 0 -30 0 0 100 0 100 -31 0 c-30 0 -31 -1 -24 -32z"/>
<path d="M26386 13621 c-4 -7 -5 -15 -2 -18 9 -9 19 4 14 18 -4 11 -6 11 -12
0z"/>
<path d="M26330 13601 c0 -12 4 -21 9 -21 5 0 12 -15 15 -32 6 -29 8 -31 17
-15 6 10 8 25 5 34 -4 11 -2 14 9 9 8 -3 15 -1 15 4 0 6 -9 10 -19 10 -11 0
-27 7 -35 16 -15 14 -16 14 -16 -5z"/>
<path d="M23250 13260 c0 -11 7 -20 15 -20 8 0 15 9 15 20 0 11 -7 20 -15 20
-8 0 -15 -9 -15 -20z"/>
<path d="M23284 13024 c3 -60 5 -130 6 -156 0 -36 4 -48 15 -48 8 0 15 -4 15
-10 0 -5 7 -10 15 -10 12 0 15 14 15 69 0 96 -8 131 -31 131 -12 0 -19 7 -19
20 0 13 7 20 20 20 13 0 20 7 20 20 0 13 -7 20 -20 20 -13 0 -20 7 -20 19 0
11 -5 23 -11 27 -8 5 -9 -24 -5 -102z"/>
<path d="M23360 13060 c0 -11 5 -20 10 -20 6 0 10 9 10 20 0 11 -4 20 -10 20
-5 0 -10 -9 -10 -20z"/>
<path d="M23360 12980 c0 -11 5 -20 10 -20 6 0 10 9 10 20 0 11 -4 20 -10 20
-5 0 -10 -9 -10 -20z"/>
<path d="M23360 12560 c0 -47 -4 -80 -10 -80 -5 0 -10 -13 -10 -29 0 -17 5
-33 10 -36 6 -3 10 -31 10 -61 0 -30 5 -54 10 -54 6 0 10 5 10 10 0 6 9 10 20
10 19 0 20 7 20 146 0 151 -6 174 -44 174 -13 0 -16 -14 -16 -80z m40 -30 c0
-5 -4 -10 -10 -10 -5 0 -10 5 -10 10 0 6 5 10 10 10 6 0 10 -4 10 -10z m0 -70
c0 -11 -4 -20 -10 -20 -5 0 -10 9 -10 20 0 11 5 20 10 20 6 0 10 -9 10 -20z"/>
<path d="M23933 12304 c-21 -14 -44 -33 -50 -42 -8 -9 -32 -17 -60 -19 -27 -3
-53 -11 -59 -19 -6 -8 -16 -14 -22 -14 -29 0 -62 -25 -67 -51 -6 -27 -35 -46
-54 -34 -5 3 -16 -3 -23 -13 -7 -11 -28 -23 -46 -26 l-32 -8 0 41 c0 30 -4 41
-15 41 -10 0 -15 -10 -15 -27 -1 -37 -11 -107 -17 -113 -2 -2 -8 1 -12 9 -6
10 -10 9 -15 -4 -3 -9 -3 -22 1 -27 3 -7 1 -8 -5 -4 -9 5 -12 -25 -12 -113 l0
-121 45 0 c25 0 45 -4 45 -10 0 -5 14 -10 30 -10 30 0 41 15 18 22 -17 6 14
38 36 38 9 0 16 5 16 10 0 6 -9 10 -20 10 -11 0 -20 7 -20 16 0 8 -4 13 -10 9
-10 -6 -50 13 -62 30 -10 13 -6 95 5 95 4 0 7 5 7 11 0 18 40 48 56 42 8 -3
59 18 113 45 54 28 101 49 103 46 3 -2 11 2 18 11 7 8 18 15 25 15 7 0 36 21
65 47 59 53 65 55 133 55 53 0 61 15 28 57 -27 35 -79 37 -128 5z m-397 -276
c-9 -12 -16 -17 -16 -10 0 14 23 42 29 37 1 -2 -4 -14 -13 -27z"/>
<path d="M26536 12264 c-8 -22 -8 -49 1 -40 8 8 16 56 9 56 -2 0 -7 -7 -10
-16z"/>
<path d="M26510 12182 c0 -5 6 -17 14 -27 13 -18 14 -17 14 8 0 16 -6 27 -14
27 -8 0 -14 -4 -14 -8z"/>
<path d="M23412 12130 c0 -19 2 -27 5 -17 2 9 2 25 0 35 -3 9 -5 1 -5 -18z"/>
<path d="M23933 12045 c-46 -32 8 -55 70 -30 23 10 22 35 -2 35 -11 0 -25 2
-33 5 -7 3 -23 -2 -35 -10z"/>
<path d="M23855 11993 c-11 -2 -66 -27 -123 -55 -71 -36 -101 -56 -97 -66 3
-7 5 -23 5 -34 0 -15 4 -18 17 -14 9 4 20 2 23 -4 5 -8 23 -9 54 -5 46 7 65
25 26 25 -11 0 -20 5 -20 10 0 6 8 10 18 10 9 0 26 12 37 26 10 14 32 32 47
40 19 10 28 22 28 40 0 14 4 23 9 19 5 -3 12 -1 16 5 6 10 -4 11 -40 3z"/>
<path d="M23431 11593 c1 -94 10 -146 22 -126 4 6 16 9 27 6 18 -5 20 0 20 46
0 28 -4 51 -10 51 -5 0 -10 25 -10 55 0 52 -1 55 -25 55 -25 0 -25 -1 -24 -87z"/>
<path d="M23577 11398 c3 -43 2 -89 -1 -103 -6 -23 -10 -25 -57 -22 -36 2 -56
9 -65 22 -13 18 -14 17 -14 -7 0 -21 5 -25 27 -25 15 0 29 -6 31 -12 2 -6 12
-11 22 -11 10 0 20 -6 22 -12 3 -8 21 4 47 30 23 23 48 42 56 42 9 0 15 10 15
25 0 37 -42 114 -62 115 -9 0 -19 8 -22 18 -2 9 -2 -18 1 -60z"/>
<path d="M26090 11282 c0 -4 -12 -8 -27 -7 -26 0 -28 -4 -31 -41 l-3 -40 46
-3 c25 -1 45 2 46 6 2 23 7 49 10 61 2 8 -6 18 -18 23 -13 4 -23 5 -23 1z"/>
<path d="M23511 10827 c-1 -96 1 -107 14 -93 19 19 20 129 0 171 -12 28 -13
22 -14 -78z"/>
<path d="M25792 10774 c-3 -36 10 -114 19 -114 5 0 9 14 9 30 0 17 -4 30 -9
30 -6 0 -12 17 -14 38 -2 20 -4 28 -5 16z"/>
<path d="M23605 10507 c-4 -10 -5 -21 -1 -24 10 -10 18 4 13 24 -4 17 -4 17
-12 0z"/>
<path d="M23585 10429 c-11 -17 -7 -321 5 -333 7 -7 10 -6 10 3 0 7 5 9 10 6
6 -4 10 6 10 24 0 16 -5 31 -12 33 -9 3 -10 22 -1 79 6 41 6 78 2 84 -5 5 -9
24 -9 42 0 26 4 33 20 33 13 0 20 7 20 20 0 15 -7 20 -24 20 -14 0 -28 -5 -31
-11z"/>
<path d="M25890 10340 c0 -11 7 -20 15 -20 8 0 15 9 15 20 0 11 -7 20 -15 20
-8 0 -15 -9 -15 -20z"/>
<path d="M23650 10015 c0 -8 7 -15 15 -15 8 0 15 7 15 15 0 8 -7 15 -15 15 -8
0 -15 -7 -15 -15z"/>
<path d="M23644 9959 c-3 -6 -3 -21 0 -35 6 -22 8 -23 21 -10 8 8 15 21 15 29
0 18 -27 30 -36 16z"/>
<path d="M23640 9855 c0 -8 5 -15 10 -15 6 0 10 7 10 15 0 8 -4 15 -10 15 -5
0 -10 -7 -10 -15z"/>
<path d="M26046 9831 c-10 -16 6 -71 20 -71 10 0 14 13 14 40 0 28 -4 40 -14
40 -8 0 -17 -4 -20 -9z"/>
<path d="M23649 9800 c-3 -8 -3 -70 -1 -137 4 -121 4 -122 26 -112 20 9 22 16
19 77 -5 98 -13 152 -23 152 -5 0 -10 8 -12 18 -3 14 -5 14 -9 2z"/>
<path d="M26010 9659 c0 -18 2 -19 15 -5 8 8 15 17 15 20 0 3 -7 6 -15 6 -9 0
-15 -9 -15 -21z"/>
<path d="M26111 9480 c-1 -29 -4 -40 -10 -32 -6 10 -10 4 -15 -18 -13 -66 -9
-77 24 -72 29 4 30 6 30 53 0 27 -4 49 -9 49 -6 0 -12 15 -14 33 -3 26 -4 24
-6 -13z"/>
<path d="M23704 9414 c-6 -53 -3 -147 12 -336 6 -67 9 -78 25 -78 16 0 19 8
19 48 1 26 7 65 15 87 12 32 14 70 8 183 -4 92 -10 142 -17 142 -6 0 -21 3
-33 6 -20 5 -22 1 -29 -52z"/>
<path d="M26200 9320 c0 -22 5 -40 10 -40 6 0 10 18 10 40 0 22 -4 40 -10 40
-5 0 -10 -18 -10 -40z"/>
<path d="M26080 9309 c0 -5 5 -7 10 -4 6 3 10 8 10 11 0 2 -4 4 -10 4 -5 0
-10 -5 -10 -11z"/>
<path d="M26144 9244 c4 -20 3 -41 -3 -48 -13 -16 -15 -54 -5 -140 6 -55 12
-73 33 -92 14 -13 30 -24 34 -24 5 0 6 -8 3 -17 -3 -10 -6 -51 -7 -90 -2 -89
17 -126 60 -121 16 1 36 -4 45 -11 14 -12 16 -10 16 23 0 20 -4 36 -10 36 -5
0 -10 9 -10 20 0 11 5 20 10 20 6 0 10 9 10 20 0 11 -4 20 -10 20 -5 0 -10 6
-10 14 0 7 -13 19 -30 26 -32 13 -42 53 -17 64 10 5 10 7 0 12 -9 4 -13 28
-13 70 0 36 -4 64 -10 64 -6 0 -10 33 -10 80 l0 80 -30 0 c-20 0 -30 5 -30 15
0 8 -5 15 -11 15 -7 0 -9 -12 -5 -36z"/>
<path d="M23773 8934 c3 -17 2 -57 -2 -90 -8 -54 1 -230 15 -312 8 -51 37 -39
46 18 10 71 9 220 -2 220 -5 0 -10 7 -10 15 0 8 -4 15 -10 15 -5 0 -10 24 -10
54 0 30 -7 66 -16 82 l-16 29 5 -31z"/>
<path d="M26316 8644 c-4 -9 -4 -31 0 -49 5 -29 2 -36 -26 -57 -32 -23 -32
-23 -26 -89 5 -55 34 -157 36 -125 0 6 9 0 20 -12 17 -18 20 -35 21 -109 0
-125 9 -167 36 -171 25 -4 35 -33 27 -84 -4 -21 -3 -76 1 -124 6 -74 11 -91
32 -112 33 -33 42 -67 49 -177 6 -113 9 -126 33 -154 17 -20 33 -96 35 -172 1
-14 9 -34 19 -44 13 -13 17 -27 13 -47 -3 -18 0 -41 10 -60 8 -16 21 -68 27
-114 6 -46 15 -84 19 -84 4 0 8 -10 8 -22 1 -23 1 -23 15 2 9 16 15 20 16 10
1 -18 17 27 18 54 1 13 -4 16 -15 12 -26 -10 -44 19 -44 73 0 28 -4 51 -10 51
-11 0 -10 69 2 76 12 7 10 94 -2 94 -5 0 -10 11 -10 25 0 14 5 25 10 25 15 0
13 137 -2 143 -10 4 -9 8 2 16 13 10 13 12 0 22 -11 8 -12 12 -2 16 23 9 12
23 -18 23 -23 0 -30 4 -30 20 0 11 -4 20 -10 20 -5 0 -10 14 -10 30 0 17 5 30
10 30 6 0 10 23 10 50 0 28 -4 50 -10 50 -5 0 -10 17 -10 39 0 35 -3 39 -30
45 -34 6 -42 36 -10 36 11 0 20 5 20 10 0 6 -9 10 -20 10 -16 0 -21 9 -26 51
-4 28 -13 53 -20 56 -11 4 -14 30 -14 102 0 58 -6 112 -15 136 -18 52 -19 75
0 75 8 0 15 6 15 13 0 15 -47 40 -60 32 -13 -8 -40 6 -40 21 0 8 5 14 10 14 6
0 10 25 10 55 0 53 -13 74 -23 38 -3 -10 -5 0 -5 22 -1 45 30 149 41 139 4 -4
7 3 7 15 0 25 -41 71 -63 71 -8 0 -18 -7 -21 -16z m124 -621 c0 -10 -4 -24 -9
-31 -7 -11 -9 -11 -14 2 -7 19 1 46 14 46 5 0 9 -8 9 -17z m160 -593 c0 -16
-4 -30 -10 -30 -5 0 -10 -9 -10 -20 0 -11 -4 -20 -10 -20 -5 0 -10 14 -10 30
0 17 5 30 10 30 6 0 10 9 10 20 0 11 5 20 10 20 6 0 10 -13 10 -30z m0 -221
c0 -31 -4 -48 -10 -44 -5 3 -10 26 -10 51 0 24 5 44 10 44 6 0 10 -23 10 -51z"/>
<path d="M23860 8415 c0 -8 5 -15 10 -15 6 0 10 7 10 15 0 8 -4 15 -10 15 -5
0 -10 -7 -10 -15z"/>
<path d="M23826 8361 c-3 -4 -2 -21 3 -37 4 -16 8 -86 8 -155 1 -151 10 -229
27 -229 7 0 18 -10 24 -22 6 -13 11 -17 11 -10 1 20 21 13 21 -8 0 -11 5 -20
11 -20 13 0 2 73 -12 78 -5 2 -8 31 -7 65 1 60 1 61 7 17 4 -27 6 6 6 79 0 90
-3 125 -12 129 -15 4 -18 72 -3 72 6 0 10 8 10 19 0 13 -10 20 -31 25 -42 8
-57 8 -63 -3z"/>
<path d="M7456 8274 c-17 -43 0 -68 28 -42 9 9 10 18 2 35 -13 27 -22 29 -30
7z"/>
<path d="M13638 7942 c-10 -28 -13 -113 -12 -344 2 -270 4 -310 19 -335 23
-39 45 -52 72 -42 33 12 37 55 30 357 -6 259 -15 342 -39 342 -4 0 -8 8 -8 18
0 11 -11 24 -24 30 -23 10 -26 8 -38 -26z"/>
<path d="M23919 7786 c-18 -40 -19 -340 -1 -403 12 -40 15 -43 48 -43 31 0 34
2 29 23 -11 46 -12 157 -1 157 7 0 7 3 -1 8 -8 5 -12 40 -12 102 0 57 -4 96
-11 98 -5 2 -10 17 -10 34 0 16 -6 35 -13 43 -11 10 -16 7 -28 -19z"/>
<path d="M12780 7501 c0 -10 -7 -21 -15 -25 -12 -4 -15 -23 -15 -85 0 -44 5
-83 10 -86 6 -4 10 -55 10 -119 0 -152 14 -220 49 -236 38 -18 147 -38 163
-29 7 4 84 12 171 17 96 6 163 15 172 22 14 12 27 15 80 19 18 2 18 3 -5 16
-28 16 -54 20 -30 5 12 -8 11 -10 -7 -10 -13 0 -23 5 -23 10 0 6 -6 10 -14 10
-7 0 -19 6 -25 14 -19 23 -74 28 -114 11 -50 -21 -256 -21 -296 0 -35 18 -41
32 -41 98 0 57 -18 302 -26 355 -4 23 -10 32 -24 32 -13 0 -20 -7 -20 -19z"/>
<path d="M13554 7096 c-18 -8 -35 -19 -38 -25 -4 -6 -16 -11 -27 -11 -12 0
-19 -7 -19 -20 0 -11 -7 -20 -15 -20 -19 0 -19 -7 -1 -26 15 -15 46 -19 46 -6
0 4 24 8 53 10 28 2 56 7 61 12 6 6 18 10 28 10 13 0 18 8 18 31 0 56 -41 73
-106 45z"/>
<path d="M13792 6758 c-7 -7 -12 -22 -12 -35 0 -21 4 -23 50 -23 46 0 50 2 50
23 0 30 -18 47 -50 47 -14 0 -31 -5 -38 -12z"/>
<path d="M7209 6753 c-9 -2 -19 -18 -23 -34 -9 -45 11 -59 86 -59 52 0 66 -4
78 -20 12 -17 26 -20 80 -20 53 0 68 -4 79 -19 11 -15 32 -21 95 -27 45 -4 76
-9 69 -11 -10 -4 -10 -7 0 -18 7 -7 15 -11 19 -9 4 2 9 -5 13 -16 6 -18 15
-20 111 -20 63 0 104 4 104 10 0 6 -18 10 -40 10 -30 0 -40 4 -40 16 0 35 -77
73 -120 59 -15 -5 -20 -2 -20 13 0 18 -36 42 -65 42 -7 0 -15 4 -17 9 -1 6
-39 12 -83 15 -82 6 -192 22 -165 25 11 1 10 5 -5 13 -11 7 -26 18 -33 25 -7
7 -28 13 -47 13 -18 0 -39 2 -47 4 -7 2 -20 2 -29 -1z"/>
<path d="M8000 6455 c0 -12 14 -15 70 -15 56 0 70 3 70 15 0 12 -14 15 -70 15
-56 0 -70 -3 -70 -15z"/>
<path d="M26702 6388 c3 -39 6 -43 31 -46 24 -3 27 0 27 27 0 24 -4 31 -20 31
-11 0 -20 7 -20 15 0 8 -5 15 -11 15 -6 0 -9 -17 -7 -42z"/>
<path d="M8191 6247 c-6 -8 -8 -16 -5 -20 3 -3 -2 -4 -12 -3 -22 3 -134 -105
-152 -147 -7 -15 -16 -26 -20 -23 -14 8 -52 -23 -52 -42 0 -15 2 -15 10 -2 6
10 10 11 10 3 0 -7 7 -13 15 -13 8 0 15 5 15 10 0 6 9 10 20 10 13 0 20 7 20
20 0 11 7 20 15 20 8 0 29 6 47 14 18 8 48 20 67 27 43 16 79 52 87 87 4 15
12 30 17 34 16 10 -18 38 -46 38 -14 0 -30 -6 -36 -13z"/>
<path d="M6757 6190 c-10 -16 -22 -30 -26 -30 -4 0 -23 -13 -41 -30 -36 -32
-27 -38 28 -17 28 10 36 10 39 0 3 -7 13 -13 24 -13 10 0 19 -4 19 -10 0 -5 9
-10 20 -10 13 0 20 7 20 20 0 11 -4 20 -10 20 -5 0 -10 14 -10 31 0 20 -8 39
-22 50 -11 11 -22 19 -22 19 -1 0 -10 -13 -19 -30z"/>
<path d="M26771 6128 c0 -40 3 -70 10 -74 8 -4 3 -12 -12 -20 -24 -13 -23 -13
11 -14 26 0 31 -3 20 -10 -19 -12 -20 -12 69 -16 49 -2 70 1 64 7 -6 6 -19 11
-30 12 -13 0 -19 6 -16 14 3 7 -2 13 -10 13 -9 0 -16 8 -16 18 -3 58 -5 64
-17 48 -19 -27 -29 -18 -27 25 1 30 -2 38 -10 30 -17 -17 -25 -13 -30 12 -2
12 -5 -8 -6 -45z"/>
<path d="M12288 6163 c6 -2 18 -2 25 0 6 3 1 5 -13 5 -14 0 -19 -2 -12 -5z"/>
<path d="M6860 6102 c0 -11 -5 -22 -11 -24 -14 -5 0 -38 17 -38 8 0 14 -4 14
-10 0 -5 18 -10 39 -10 31 0 41 -4 46 -20 5 -17 15 -20 61 -20 30 0 54 -4 54
-10 0 -5 6 -10 14 -10 7 0 16 -13 20 -30 5 -25 10 -30 35 -30 16 0 32 -6 34
-12 4 -10 8 -9 17 2 9 11 13 12 17 3 6 -16 303 -19 303 -3 0 6 29 10 66 10 43
0 70 5 80 14 30 31 15 36 -99 36 -215 0 -387 12 -387 27 0 7 -11 13 -24 13
-34 0 -56 10 -56 25 0 8 -21 15 -60 20 -33 4 -60 11 -60 16 0 5 -9 9 -20 9
-13 0 -20 7 -20 19 0 12 -9 22 -22 26 -13 4 -31 9 -40 11 -13 4 -18 0 -18 -14z"/>
<path d="M26950 6000 c0 -5 7 -10 16 -10 8 0 12 5 9 10 -3 6 -10 10 -16 10 -5
0 -9 -4 -9 -10z"/>
<path d="M7853 5993 c-20 -3 -33 -10 -33 -19 0 -18 47 -19 66 0 15 16 18 27 7
24 -5 0 -23 -3 -40 -5z"/>
<path d="M26962 5971 c-10 -6 -9 -11 2 -21 12 -9 34 -10 82 -5 36 4 64 8 62
10 -2 2 -29 6 -60 8 -31 3 -61 8 -65 10 -5 3 -15 2 -21 -2z"/>
<path d="M6572 5900 c0 -14 2 -19 5 -12 2 6 2 18 0 25 -3 6 -5 1 -5 -13z"/>
<path d="M27540 5910 c0 -6 17 -10 37 -10 43 0 41 5 -4 13 -19 4 -33 2 -33 -3z"/>
<path d="M27640 5910 c0 -5 5 -10 11 -10 5 0 7 5 4 10 -3 6 -8 10 -11 10 -2 0
-4 -4 -4 -10z"/>
<path d="M27860 5879 c0 -12 111 -12 129 0 9 6 -11 9 -57 9 -40 0 -72 -4 -72
-9z"/>
<path d="M28105 5880 c-22 -4 -33 -8 -24 -9 9 0 31 -4 48 -7 24 -5 31 -3 31
10 0 9 -3 15 -7 15 -5 -1 -26 -5 -48 -9z"/>
<path d="M27538 5863 c12 -2 30 -2 40 0 9 3 -1 5 -23 4 -22 0 -30 -2 -17 -4z"/>
<path d="M12575 5720 c-11 -5 -32 -9 -47 -9 -15 -1 -34 -8 -42 -17 -9 -8 -19
-13 -24 -10 -4 2 -14 0 -22 -5 -13 -8 -12 -12 4 -24 22 -16 170 -20 216 -5 24
8 24 8 3 9 -28 1 -31 21 -3 21 13 0 20 7 20 19 0 27 -63 39 -105 21z"/>
<path d="M12411 5694 c0 -11 3 -14 6 -6 3 7 2 16 -1 19 -3 4 -6 -2 -5 -13z"/>
<path d="M13300 5590 c0 -5 6 -10 13 -11 79 -6 87 -5 87 8 0 9 -15 13 -50 13
-27 0 -50 -4 -50 -10z"/>
<path d="M14560 5585 c0 -8 4 -15 8 -15 5 0 9 7 9 15 0 8 -4 15 -9 15 -4 0 -8
-7 -8 -15z"/>
<path d="M13798 5563 c23 -2 61 -2 85 0 23 2 4 4 -43 4 -47 0 -66 -2 -42 -4z"/>
<path d="M14118 5563 c23 -2 61 -2 85 0 23 2 4 4 -43 4 -47 0 -66 -2 -42 -4z"/>
<path d="M14418 5563 c12 -2 32 -2 45 0 12 2 2 4 -23 4 -25 0 -35 -2 -22 -4z"/>
<path d="M14498 5563 c7 -3 16 -2 19 1 4 3 -2 6 -13 5 -11 0 -14 -3 -6 -6z"/>
<path d="M26060 5231 c0 -17 15 -19 28 -5 11 12 9 14 -8 14 -11 0 -20 -4 -20
-9z"/>
<path d="M27560 5160 c0 -5 25 -10 56 -10 34 0 53 4 49 10 -3 6 -28 10 -56 10
-27 0 -49 -4 -49 -10z"/>
<path d="M26218 5143 c7 -3 16 -2 19 1 4 3 -2 6 -13 5 -11 0 -14 -3 -6 -6z"/>
</g>
</svg>
